<svg xmlns="http://www.w3.org/2000/svg" viewBox="0 0 1920 1080">
	<path fill="#FF735C"
		d="M1920 207.6V321c-267-51-554.7 6.3-778.8 160.9C977.1 595.1 845.6 756.5 665 841.1c-138.3 64.7-299.6 78.7-446.9 38.8C139.5 858.7 65.3 822.2 0 773.7V638c59.7 86.8 145.9 155.5 244.5 192.9 127.9 48.5 275.2 43.8 399.7-13C826 735.1 943 557.8 1095.3 428.5 1319.4 238.2 1631 156.2 1920 207.6z" />
	<path fill="#264653"
		d="M1141.3 481.8C977.1 595.1 845.6 756.6 665 841.1c-138.2 64.7-299.6 78.7-446.9 38.8C139.5 858.7 65.3 822.2 0 773.7v306.6h1920.1V320.9c-267-51-554.7 6.3-778.8 160.9z" />
	<path fill="#FEFAE0"
		d="M1920 0v321-113.4c-289-51.4-600.6 30.6-824.7 220.9C943 557.8 826 735.1 644.2 817.9c-124.5 56.7-271.8 61.5-399.8 13C145.9 793.5 60 724.9 0 638.2V0h1920z" />
</svg>