<svg xmlns="http://www.w3.org/2000/svg" viewBox="0 0 1920 1080">
  <path fill="#FF735C" d="M1920 0v1080H0V0v692.8c289 51.4 600.6-30.6 824.7-220.9C977 342.7 1094.1 165.3 1275.9 82.5c124.5-56.7 271.7-61.5 399.7-13 98.6 37.4 184.5 106.1 244.5 192.9V0h-.1z"/>
  <path fill="#FEFAE0" d="M1920 146.9v115.5c-60-86.8-145.9-155.5-244.5-192.9-127.9-48.5-275.2-43.8-399.7 13-181.7 82.8-298.8 260.2-451.1 389.4C600.6 662.3 289 744.2 0 692.8v-93.2c267 51 554.7-6.3 778.8-160.9C942.9 325.5 1074.5 164 1255.1 79.5 1393.4 14.8 1554.6.8 1702 40.7c78.5 21.2 153 57.7 218 106.2z"/>
  <path fill="#264653" d="M1920-.1v147c-65.3-48.5-139.5-85-218.1-106.2C1554.6.8 1393.2 14.8 1255 79.5c-180.6 84.5-312.1 246-476.3 359.3C554.7 593.4 267 650.7 0 599.6V-.1h1920z"/>
</svg>
