<?xml version="1.0" encoding="UTF-8" standalone="no"?>
<svg
   xmlns:dc="http://purl.org/dc/elements/1.1/"
   xmlns:cc="http://creativecommons.org/ns#"
   xmlns:rdf="http://www.w3.org/1999/02/22-rdf-syntax-ns#"
   xmlns:svg="http://www.w3.org/2000/svg"
   xmlns="http://www.w3.org/2000/svg"
   xmlns:sodipodi="http://sodipodi.sourceforge.net/DTD/sodipodi-0.dtd"
   xmlns:inkscape="http://www.inkscape.org/namespaces/inkscape"
   version="1.1"
   id="svg10"
   width="2181.1201"
   height="1797.12"
   viewBox="0 0 2181.1201 1797.12"
   sodipodi:docname="bookReading.svg"
   inkscape:version="1.0.2-2 (e86c870879, 2021-01-15)">
  <metadata
     id="metadata16">
    <rdf:RDF>
      <cc:Work
         rdf:about="">
        <dc:format>image/svg+xml</dc:format>
        <dc:type
           rdf:resource="http://purl.org/dc/dcmitype/StillImage" />
        <dc:title></dc:title>
      </cc:Work>
    </rdf:RDF>
  </metadata>
  <defs
     id="defs14">
    <filter
       inkscape:collect="always"
       style="color-interpolation-filters:sRGB"
       id="filter1330"
       x="-0.0016084145"
       width="1.0032168"
       y="-0.0021980535"
       height="1.0043961">
      <feGaussianBlur
         inkscape:collect="always"
         stdDeviation="0.15985118"
         id="feGaussianBlur1332" />
    </filter>
  </defs>
  <sodipodi:namedview
     pagecolor="#ffffff"
     bordercolor="#666666"
     borderopacity="1"
     objecttolerance="10"
     gridtolerance="10"
     guidetolerance="10"
     inkscape:pageopacity="0"
     inkscape:pageshadow="2"
     inkscape:window-width="1920"
     inkscape:window-height="1001"
     id="namedview12"
     showgrid="false"
     inkscape:zoom="0.32657732"
     inkscape:cx="1166.0246"
     inkscape:cy="882.58877"
     inkscape:window-x="-9"
     inkscape:window-y="-9"
     inkscape:window-maximized="1"
     inkscape:current-layer="g18" />
  <g
     inkscape:groupmode="layer"
     inkscape:label="Image"
     id="g18">
    <g
       id="g22"
       transform="translate(-1.4032992e-5)">
      <path
         style="fill:#ddf0f0;stroke-width:0.96"
         d="M 0,898.56 V 0 h 1090.5601 1090.56 v 898.56 898.56 H 1090.5601 0 Z m 1733.2801,753.9395 c 27.7727,-6.5266 46.8227,-16.9607 66.3253,-36.3281 19.3027,-19.1687 31.1594,-41.343 36.5695,-68.3923 2.5571,-12.7844 2.2904,-37.8583 -0.5434,-51.0975 -2.7857,-13.0147 -7.6967,-26.0952 -14.072,-37.4816 -6.6364,-11.8524 -11.1366,-17.7966 -21.3524,-28.2036 -19.3379,-19.6995 -43.7481,-32.447 -71.1024,-37.1308 -10.2943,-1.7627 -16.6238,-1.8728 -114.72,-1.9964 -57.1035,-0.072 -102.7446,-0.3053 -101.4246,-0.5188 43.2289,-6.9924 80.6549,-35.1456 98.7294,-74.2678 12.9461,-28.0218 15.7734,-58.5631 8.217,-88.7626 -11.8723,-47.4476 -51.9673,-85.9603 -99.7464,-95.8099 -6.3504,-1.3092 -4.3703,-1.4117 36,-1.8649 38.1452,-0.4282 43.7002,-0.6884 51.8741,-2.4295 35.3901,-7.5386 64.5323,-27.1107 83.9417,-56.3757 9.163,-13.8157 14.2062,-25.4258 18.5384,-42.6777 2.3187,-9.2341 2.5445,-11.807 2.5738,-29.3223 0.035,-20.59344 -0.8817,-27.30106 -5.7766,-42.29591 -11.6441,-35.67077 -40.5862,-66.58218 -75.3787,-80.50763 -4.8365,-1.93576 -13.1719,-4.6797 -18.5231,-6.09766 l -9.7296,-2.5781 -139.8598,-0.28502 -139.8599,-0.28502 1.8275,-5.31161 c 4.3802,-12.73126 6.135,-24.23556 6.1379,-40.23905 0,-21.96301 -3.213,-36.47449 -12.3876,-55.8814 -8.4972,-17.97392 -24.395,-37.30304 -40.3381,-49.04459 -8.5096,-6.26695 -24.6067,-14.65048 -34.56,-17.9992 -17.1469,-5.76891 -22.1954,-6.36522 -58.32,-6.88857 l -33.36,-0.4833 v -59.96055 -59.96054 l 5.04,0.59299 c 2.772,0.32615 13.896,0.68123 24.72,0.78908 19.013,0.18944 19.8264,0.1193 24,-2.06954 9.3314,-4.8939 14.3932,-12.6581 15.1081,-23.17438 0.4471,-6.57684 1.3705,-2.95452 -20.8217,-81.68297 l -3.6766,-13.04299 3.4056,-36.45197 c 1.8731,-20.04859 3.1168,-37.60242 2.7639,-39.0085 -0.8376,-3.33722 -5.0748,-7.21823 -9.1005,-8.3353 -2.4821,-0.68881 -4.9613,-0.37632 -11.04,1.39151 -4.3113,1.25389 -8.0964,1.98514 -8.4111,1.62501 -0.3148,-0.36014 -3.5058,-11.15821 -7.0912,-23.99572 -3.5855,-12.83751 -7.9152,-26.22951 -9.6218,-29.76 -7.4534,-15.41946 -21.6491,-26.96693 -38.3947,-31.23205 -4.5518,-1.15932 -47.3943,-5.43556 -54.3877,-5.4286 -1.3306,9.6e-4 -1.1433,-0.81895 1.1567,-5.06536 3.5865,-6.62166 5.7109,-14.98986 5.7109,-22.49476 0,-3.32106 -0.108,-6.0365 -0.24,-6.03428 -0.132,0.002 -2.3652,1.08221 -4.9627,2.4 -8.3525,4.23754 -21.3785,2.39056 -25.8983,-3.6722 -2.2278,-2.98819 -2.3328,-6.2578 -1.6399,-51.05182 0.3416,-22.08815 -0.6384,-29.71183 -5.0621,-39.37431 -1.864,-4.07134 -3.2106,-5.58052 -6.4576,-7.23699 -9.5114,-4.85238 -38.29801,-8.27693 -61.33936,-7.29714 -21.81755,0.92775 -28.09832,2.93604 -32.08395,10.25894 -5.23862,9.62507 -6.41872,17.22348 -7.35227,47.33972 -0.90305,29.13183 -1.48268,33.41951 -5.31376,39.30726 -4.89239,7.5188 -13.21565,9.39386 -23.92025,5.38876 -2.96024,-1.10756 -5.64766,-1.74835 -5.97205,-1.42396 -0.32439,0.32439 -0.56813,3.95417 -0.54166,8.06618 0.0352,5.46657 0.59912,8.72195 2.09775,12.10985 l 2.0496,4.63346 -3.60171,-0.5991 c -1.98093,-0.32951 -9.6497,-0.87586 -17.0417,-1.21413 -16.43471,-0.75206 -21.81289,0.19666 -33.81664,5.96531 -12.39341,5.9559 -20.47051,14.00385 -26.50519,26.40956 -4.18117,8.59539 -5.36481,13.26863 -24.77755,97.82659 -19.06614,83.0483 -20.41236,89.5294 -20.78418,100.06116 -0.45292,12.82925 1.1221,22.00563 5.59486,32.59684 4.45565,10.55069 9.15073,16.92467 22.21035,30.15248 l 12.41064,12.57048 -0.13589,110.30952 c -0.12169,98.78465 0.0273,111.01161 1.4256,117.02952 7.92214,34.09369 33.67323,59.83021 67.258,67.21997 4.84401,1.06584 -27.06307,1.29814 -200.64001,1.46077 -121.49341,0.11384 -204.03052,0.53659 -200.64001,1.02769 15.83758,2.29398 29.29487,15.15315 32.17765,30.74749 0.63422,3.43083 0.88736,39.68412 0.72017,103.13728 -0.27417,104.052 -0.1807,101.8982 -4.66204,107.4269 -9.43182,11.6364 -16.93982,16.8708 -26.91101,18.7618 -2.73089,0.5178 -25.63725,0.9905 -51.1358,1.0551 -29.81964,0.076 -44.19452,0.4084 -40.56128,0.939 12.43878,1.8165 23.97347,10.3107 29.64445,21.83 2.90024,5.8912 3.11782,7.0772 3.71438,20.2459 0.34852,7.6935 0.57155,53.0841 0.4956,100.8681 -0.15432,97.0983 0.27458,90.9968 -7.09782,100.9764 -6.9928,9.4657 -14.46492,14.2008 -25.78027,16.3369 -5.63408,1.0636 9.89576,1.3172 105.73679,1.7267 l 112.34082,0.48 6.59886,3.2489 c 7.8702,3.8749 14.03751,9.9638 18.10109,17.8711 2.7933,5.4354 3.00032,6.5984 3.67412,20.64 0.39272,8.184 0.74785,52.9133 0.78917,99.3983 0.0644,72.4704 -0.13163,85.3121 -1.37529,90.0868 -3.92157,15.056 -15.55678,25.635 -31.73857,28.8574 -5.68067,1.1312 75.77292,1.2998 558.30906,1.1558 l 564.96,-0.1684 z"
         id="path46" />
      <path
         style="fill:#e3e4e4;stroke-width:0.96"
         d="m 631.63696,1630.5953 2.06777,-5.04 v -99.36 c 0,-54.648 0.12261,-94.716 0.27248,-89.04 l 0.27247,10.32 498.92752,0.01 c 434.0423,0.01 500.145,0.1891 508.289,1.4168 40.9333,6.17 75.3332,35.5643 88.1473,75.3205 10.1389,31.4563 6.2705,63.2869 -11.2238,92.3561 -3.0854,5.1268 -3.7399,5.6284 -12.1331,9.3 -9.6437,4.2187 -20.4125,7.2691 -30.9518,8.7675 -4.3907,0.6242 -186.7969,0.9619 -526.2278,0.9744 l -519.50781,0.019 2.06777,-5.04 z m -2.67051,-215.4786 c -0.52098,-1.3682 -0.41071,-1.4784 0.53741,-0.5374 0.65608,0.6512 0.95104,1.4259 0.65546,1.7214 -0.29557,0.2955 -0.83236,-0.2373 -1.19287,-1.184 z m 367.83382,-19.9042 c -7.43319,-3.0336 -8.75741,-4.173 -7.18733,-6.1846 1.06646,-1.3664 1.01769,-1.4006 -0.40685,-0.286 -1.19011,0.9313 -2.11843,0.9992 -3.5064,0.2563 -2.44848,-1.3104 -7.20807,-7.3432 -9.3697,-11.8762 l -1.70083,-3.5667 H 695.11592 415.60271 l 2.01101,-5.52 c 1.99211,-5.4682 2.011,-6.4397 2.011,-103.44 0,-53.856 0.12365,-93.708 0.27476,-88.56 l 0.27476,9.36 h 265.94995 265.94994 l -0.78469,2.16 c -0.43159,1.188 -0.7847,4.8236 -0.7847,8.0793 0,5.0449 0.43167,6.5337 2.92263,10.08 3.00924,4.284 9.60163,8.6492 13.72646,9.089 1.28679,0.1371 3.03504,0.5484 3.88522,0.9138 1.45661,0.6262 3.86563,1.1847 6.58569,1.527 0.66,0.083 1.2,0.5364 1.2,1.0076 0,0.4711 0.432,0.5896 0.96,0.2633 0.528,-0.3263 1.50001,-0.2553 2.16001,0.158 0.66,0.4132 1.632,0.8049 2.16,0.8704 0.528,0.065 1.52553,0.1849 2.21664,0.2654 0.73747,0.085 0.95875,0.642 0.53577,1.3462 -0.54048,0.8995 -0.33571,0.8879 0.81783,-0.047 1.05264,-0.8527 1.73846,-0.9237 2.17065,-0.2243 0.34743,0.5622 0.94695,0.8274 1.33219,0.5893 0.97018,-0.5996 20.48727,4.6812 19.80877,5.3597 -0.3016,0.3017 0.5467,0.3391 1.8849,0.083 1.4882,-0.2845 2.4332,-0.027 2.4332,0.6634 0,0.6207 0.3798,0.8939 0.844,0.607 0.4642,-0.2868 6.6202,0.9955 13.68,2.8498 16.2066,4.2567 21.5869,4.4023 27.5887,0.7467 4.49,-2.735 7.7574,-7.7821 11.803,-18.2319 l 1.55,-4.0037 4.5898,2.3237 c 2.5245,1.2781 5.1647,2.3237 5.8673,2.3237 0.7025,0 1.2772,0.1548 1.2772,0.344 0,0.1892 -6.4222,11.6114 -14.2715,25.3826 -7.8493,13.7711 -14.7613,26.9836 -15.36,29.361 -1.5159,6.0203 -1.3577,15.6769 0.3489,21.2982 0.7905,2.6038 10.7222,22.2302 22.0705,43.6142 l 20.633,38.88 -22.7905,0.48 c -14.2336,0.2998 -22.7904,0.8405 -22.7904,1.44 0,0.528 -0.3084,0.8572 -0.6854,0.7315 -0.377,-0.1256 -0.4688,0.3363 -0.2039,1.0266 0.567,1.4773 -8.4268,10.2611 -12.8463,12.5466 -1.6854,0.8716 -3.0644,1.342 -3.0644,1.0453 0,-0.2965 -1.5617,0.522 -3.4704,1.819 -1.9087,1.297 -4.2962,2.1992 -5.3056,2.0048 -1.0094,-0.1944 -1.6102,0.011 -1.3352,0.4558 0.2752,0.4451 -0.1315,1.0516 -0.9035,1.3478 -0.772,0.2964 -1.6591,0.1256 -1.9712,-0.3793 -0.3121,-0.505 -1.0819,-0.9115 -1.7107,-0.9034 -0.7493,0.01 -0.686,0.3044 0.1835,0.8551 1.9703,1.2479 -0.9177,1.8201 -9.4869,1.88 -5.4408,0.038 -8.5546,-0.5026 -12.74443,-2.2126 z m 4.10443,-1.1205 c 0,-0.7946 -1.86399,-1.2439 -2.29138,-0.5524 -0.27725,0.4486 0.1249,0.8157 0.89367,0.8157 0.76881,0 1.39771,-0.1185 1.39771,-0.2633 z m 34.0823,-7.3283 c 0.4321,0.3913 0.4618,0.1506 0.066,-0.5351 -0.5542,-0.9603 -1.0303,-0.9885 -2.0739,-0.1224 -0.745,0.6183 -1.3546,1.3402 -1.3546,1.6042 0,0.264 0.5798,0 1.2884,-0.5892 0.7085,-0.5881 1.6419,-0.749 2.0739,-0.3575 z m 13.5261,-13.44 c 0.4794,0.3913 0.5514,0.3193 0.16,-0.1601 -0.3915,-0.4794 -0.2625,-1.4129 0.2866,-2.0745 0.7008,-0.8445 0.6541,-1.4156 -0.1567,-1.9167 -0.6783,-0.4191 -0.9049,-0.3093 -0.5492,0.2662 0.7694,1.2451 -2.5935,4.3671 -3.6609,3.3988 -0.4378,-0.3971 -0.4722,-0.1611 -0.077,0.5246 0.5085,0.8811 1.0719,0.9539 1.9222,0.2482 0.6616,-0.549 1.5952,-0.678 2.0746,-0.2865 z m -82.62292,-20.703 c -0.29558,-0.2956 -1.0702,-6e-4 -1.72147,0.6555 -0.94099,0.9481 -0.83078,1.0584 0.53741,0.5374 0.94675,-0.3605 1.47955,-0.8973 1.18406,-1.1929 z m -21.62544,-38.9479 c 0,-0.1993 -0.756,-0.9553 -1.68,-1.68 -1.52261,-1.194 -1.55657,-1.1602 -0.36245,0.3625 1.25411,1.5991 2.04245,2.1077 2.04245,1.3175 z m -10.7454,-23.1829 c -0.29558,-0.2955 -0.83237,0.2373 -1.19288,1.184 -0.52097,1.3682 -0.41071,1.4784 0.53741,0.5374 0.65608,-0.6512 0.95104,-1.4259 0.65547,-1.7214 z m 242.61766,81.3854 c 1.8439,-4.3164 3.3269,-11.7038 3.3181,-16.5292 -0.012,-6.16 -1.4148,-10.3199 -18.1485,-53.7908 -6.4898,-16.8595 -12.1398,-33.0876 -12.7689,-36.6756 -1.0366,-5.9113 -0.924,-7.2405 1.3829,-16.32 3.5826,-14.1012 4.1736,-15.4241 6.5531,-14.6688 3.4515,1.0954 10.0742,0.6727 13.7909,-0.8803 6.3274,-2.6437 8.4529,-6.0736 16.9646,-27.3755 l 8.0756,-20.21 112.4342,-0.014 c 123.3232,-0.016 120.2137,-0.1464 137.8692,5.7687 52.2589,17.5083 83.9711,72.4161 73.0821,126.5373 -2.8401,14.1158 -10.3743,32.0631 -16.6624,39.6917 -4.8285,5.8578 -23.5523,12.6663 -41.5926,15.1242 -5.0264,0.6849 -53.39,1.0232 -146.2627,1.0232 -131.7794,0 -138.7172,-0.084 -138.0356,-1.68 z m 403.1678,-10.8 c 0.9557,-1.056 1.9536,-1.92 2.2176,-1.92 0.264,0 -0.3019,0.864 -1.2576,1.92 -0.9557,1.056 -1.9536,1.92 -2.2176,1.92 -0.264,0 0.3019,-0.864 1.2576,-1.92 z m 10.56,-10.56 c 0.9557,-1.056 1.9536,-1.92 2.2176,-1.92 0.264,0 -0.3019,0.864 -1.2576,1.92 -0.9557,1.056 -1.9536,1.92 -2.2176,1.92 -0.264,0 0.3019,-0.864 1.2576,-1.92 z m -5.4025,-181.2 c -1.1941,-1.5227 -1.1602,-1.5565 0.3625,-0.3625 1.599,1.2541 2.1077,2.0425 1.3175,2.0425 -0.1993,0 -0.9553,-0.756 -1.68,-1.68 z m -8.64,-7.68 c -1.1941,-1.5227 -1.1602,-1.5565 0.3625,-0.3625 0.924,0.7247 1.68,1.4807 1.68,1.68 0,0.7902 -0.7884,0.2816 -2.0425,-1.3175 z m -1168.24926,-18.24 -3.30832,-3.6 3.6,3.3084 c 1.98,1.8195 3.6,3.4395 3.6,3.6 0,0.733 -0.81237,0.042 -3.89168,-3.3084 z m 87.41168,-20.7004 c 0,-0.1652 1.404,-1.5692 3.12,-3.12 l 3.12,-2.8196 -2.8196,3.12 c -2.62827,2.9083 -3.4204,3.5613 -3.4204,2.8196 z m 11.04493,-12.8996 c 3.25505,-7.9214 3.33215,-10.2013 3.34368,-98.88 l 0.0114,-87.6 h 270.7904 c 224.90217,0 270.73787,0.21647 270.47997,1.27743 -0.1707,0.70259 -16.0784,43.02849 -35.3504,94.05747 l -35.03995,92.7802 -237.46272,0.022 c -225.78298,0.021 -237.42876,-0.061 -236.77237,-1.6576 z m 720.75705,-1.44 c 0.6973,-1.716 17.8454,-44.052 38.107,-94.08 l 36.8393,-90.96 h 104.8398 c 112.642,0 110.5477,-0.0816 126.9403,4.94418 8.0091,2.45554 20.9666,8.81756 29.0727,14.2746 14.1611,9.53314 30.1316,28.20282 37.3709,43.68676 15.3022,32.72926 13.9166,71.17036 -3.6887,102.33996 l -4.5381,8.0345 -8.3548,4.098 c -9.767,4.7907 -22.6407,8.4127 -34.7903,9.7881 -5.5179,0.6247 -65.45,0.981 -165.8529,0.986 l -157.2129,0.01 1.2677,-3.12 z m 448.0381,-14.64 c 1.24,-1.32 2.4706,-2.4 2.7346,-2.4 0.264,0 -0.5346,1.08 -1.7746,2.4 -1.2401,1.32 -2.4707,2.4 -2.7347,2.4 -0.264,0 0.5346,-1.08 1.7747,-2.4 z M 508.50052,902.5953 c 0.0461,-1.11835 0.27354,-1.34582 0.57999,-0.58 0.27731,0.693 0.24321,1.521 -0.0757,1.84 -0.31899,0.319 -0.54589,-0.248 -0.50421,-1.26 z M 1181.156,575.11633 c 1.1941,-0.22962 2.9221,-0.22091 3.84,0.0194 0.9177,0.24028 -0.06,0.42816 -2.1712,0.41751 -2.112,-0.0107 -2.8631,-0.20726 -1.6688,-0.43688 z m -22.5712,-0.94279 c 0.924,-0.24146 2.436,-0.24146 3.36,0 0.924,0.24147 0.168,0.43904 -1.68,0.43904 -1.848,0 -2.604,-0.19757 -1.68,-0.43904 z m 54.48,-6.53824 c 1.7911,-1.848 3.4726,-3.36 3.7366,-3.36 0.264,0 -0.9855,1.512 -2.7766,3.36 -1.7912,1.848 -3.4727,3.36 -3.7367,3.36 -0.264,0 0.9855,-1.512 2.7767,-3.36 z m -427.32252,-17.52 c -1.19412,-1.52262 -1.16016,-1.55657 0.36246,-0.36246 1.59912,1.25412 2.10766,2.04246 1.31754,2.04246 -0.19935,0 -0.95535,-0.756 -1.68,-1.68 z m -17.08175,-39.2 c 0.0461,-1.11835 0.27354,-1.34582 0.57999,-0.58 0.27732,0.693 0.24322,1.521 -0.0757,1.84 -0.319,0.319 -0.5459,-0.248 -0.50421,-1.26 z m 191.99996,-38.4 c 0.0461,-1.11835 0.2736,-1.34582 0.58003,-0.58 0.27734,0.693 0.24326,1.521 -0.0758,1.84 -0.31901,0.319 -0.54595,-0.248 -0.50429,-1.26 z m 0.96,-11.52 c 0.0461,-1.11835 0.2736,-1.34582 0.58003,-0.58 0.27734,0.693 0.24326,1.521 -0.0758,1.84 -0.31901,0.319 -0.54595,-0.248 -0.50429,-1.26 z m 0.96,-11.52 c 0.0461,-1.11835 0.2736,-1.34582 0.58003,-0.58 0.27734,0.693 0.24326,1.521 -0.0758,1.84 -0.31901,0.319 -0.54595,-0.248 -0.50429,-1.26 z m 3.84,-45.12 c 0.0461,-1.11835 0.2736,-1.34582 0.58003,-0.58 0.27734,0.693 0.24326,1.521 -0.0758,1.84 -0.31901,0.319 -0.54595,-0.248 -0.50429,-1.26 z m 0.96,-11.52 c 0.0461,-1.11835 0.2736,-1.34582 0.58003,-0.58 0.27734,0.693 0.24326,1.521 -0.0758,1.84 -0.31901,0.319 -0.54595,-0.248 -0.50429,-1.26 z m 0.96,-11.52 c 0.0461,-1.11835 0.2736,-1.34582 0.58003,-0.58 0.27734,0.693 0.24326,1.521 -0.0758,1.84 -0.31901,0.319 -0.54595,-0.248 -0.50429,-1.26 z m 3.76425,-13.24246 c 0,-0.19934 0.756,-0.95534 1.68,-1.68 1.52266,-1.19411 1.55655,-1.16016 0.3625,0.36246 -1.25414,1.59912 -2.0425,2.10766 -2.0425,1.31754 z m 173.68736,-63.71754 -2.3273,-2.64 2.64,2.32734 c 1.452,1.28004 2.64,2.46804 2.64,2.64 0,0.75291 -0.7775,0.14014 -2.9527,-2.32734 z M 821.38474,288.45491 c 0,-0.16522 1.404,-1.56922 3.12,-3.12 l 3.12,-2.81961 -2.81961,3.12 c -2.62827,2.90828 -3.42039,3.56126 -3.42039,2.81961 z m 282.00006,-1.2954 c 0.66,-0.26631 1.74,-0.26631 2.4,0 0.66,0.26631 0.12,0.48422 -1.2,0.48422 -1.32,0 -1.86,-0.21791 -1.2,-0.48422 z m -11.52,-0.96 c 0.66,-0.26631 1.74,-0.26631 2.4,0 0.66,0.26631 0.12,0.48422 -1.2,0.48422 -1.32,0 -1.86,-0.21791 -1.2,-0.48422 z m -11.9818,-0.98948 c 0.9341,-0.2434 2.2301,-0.2274 2.88,0.0356 0.65,0.26297 -0.1143,0.46211 -1.6983,0.44255 -1.584,-0.0196 -2.1157,-0.23472 -1.1817,-0.47812 z m -10.0383,-0.95052 c 0.6931,-0.27731 1.5211,-0.24321 1.8401,0.0757 0.319,0.319 -0.2481,0.54589 -1.26,0.50421 -1.1184,-0.0461 -1.3458,-0.27354 -0.5801,-0.57999 z m -182.45996,-15.34 c 0.66,-0.26631 1.74,-0.26631 2.4,0 0.66,0.26631 0.12,0.48422 -1.2,0.48422 -1.32,0 -1.86,-0.21791 -1.2,-0.48422 z m -11.98173,-0.98948 c 0.93405,-0.2434 2.23005,-0.2274 2.88,0.0356 0.64995,0.26297 -0.11427,0.46211 -1.69827,0.44255 -1.584,-0.0196 -2.11578,-0.23472 -1.18173,-0.47812 z"
         id="path44" />
      <path
         style="fill:#9ad3f2;stroke-width:0.96"
         d="m 807.97895,779.70713 c 0.004,-3.696 0.17777,-5.09036 0.3856,-3.09859 0.20781,1.99178 0.20432,5.01578 -0.008,6.72 -0.21208,1.70423 -0.38211,0.0746 -0.37785,-3.62141 z M 1206.844,692.17134 c 0.693,-0.27731 1.521,-0.24321 1.84,0.0757 0.319,0.319 -0.2481,0.54589 -1.26,0.50421 -1.1184,-0.0461 -1.3458,-0.27354 -0.58,-0.57999 z M 1104.7385,536.25158 c 0.3588,-2.32345 0.8728,-5.54816 1.1423,-7.16601 0.3205,-1.92456 0,-3.34993 -0.9333,-4.12269 -1.5668,-1.30035 -35.7676,-7.21313 -37.6171,-6.50341 -0.6344,0.24346 -1.4092,1.72122 -1.7217,3.28393 -0.7294,3.64671 -3.2378,4.63642 -5.854,2.30963 -2.1017,-1.86919 -13.1288,-4.30409 -15.4531,-3.41217 -0.7389,0.28355 -2.0713,2.42147 -2.961,4.75091 -0.9341,2.44572 -2.2354,4.23536 -3.0799,4.23536 -2.8706,0 -67.93772,-17.31304 -71.0653,-18.90906 -3.60509,-1.83968 -6.63648,-5.65462 -7.84694,-9.87513 -0.92361,-3.2205 8.87836,-123.85914 10.54233,-129.75038 0.56467,-1.99924 2.59527,-4.94746 4.74538,-6.88997 7.08019,-6.39652 5.58077,-6.67326 64.38773,11.8839 28.776,9.08055 54.6961,17.1637 57.6001,17.96254 l 5.28,1.45243 36.96,-11.27052 c 20.328,-6.19877 40.2715,-12.28375 44.3188,-13.52216 5.7262,-1.7521 8.0692,-2.05458 10.56,-1.36338 4.0286,1.11788 8.2631,4.99874 9.1022,8.34192 0.5806,2.31322 -2.476,36.71733 -8.8079,99.13981 -1.2586,12.408 -2.3075,23.30918 -2.3308,24.22485 -0.1032,4.05602 -5.1589,7.47457 -18.7623,12.68688 -13.4106,5.13839 -65.0676,25.17191 -67.5488,26.19665 -1.0427,0.43063 -1.1762,-0.31839 -0.6567,-3.68393 z"
         id="path42" />
      <path
         style="fill:#c6bcb4;stroke-width:0.96"
         d="m 1718.7608,1614.9088 c 10.6145,-16.8143 17.3241,-40.5448 16.8224,-59.4973 -1.2817,-48.4271 -31.2544,-89.0702 -76.9417,-104.333 -16.9696,-5.6691 18.8529,-5.3067 -525.1214,-5.3128 l -498.96007,-0.01 v -9.3908 c 0,-8.2552 -0.68195,-12.505 -3.38402,-21.0892 l -0.67991,-2.16 h 520.3063 c 462.0424,0 521.2609,0.1641 528.8319,1.4648 30.5815,5.2541 57.3148,22.6879 74.1839,48.3782 28.497,43.3985 22.7259,101.1275 -13.7885,137.9269 -6.9606,7.015 -20.6803,17.6701 -22.7522,17.6701 -0.4518,0 0.2157,-1.643 1.4833,-3.6512 z M 1019.52,1393.92 c -0.8652,-0.5592 -0.9836,-0.9365 -0.2966,-0.9453 0.6288,-0.01 1.4103,0.4173 1.7366,0.9453 0.7367,1.1918 0.4043,1.1918 -1.44,0 z m 4.4189,-0.8 c -0.2719,-0.44 0.1156,-0.8 0.8611,-0.8 0.7456,0 1.1331,0.36 0.8612,0.8 -0.272,0.44 -0.6595,0.8 -0.8612,0.8 -0.2016,0 -0.5891,-0.36 -0.8611,-0.8 z m -638.97888,-0.9626 c 1.32,-0.3506 50.136,-0.4167 108.48,-0.147 l 106.08001,0.4904 -108.48001,0.1471 c -59.664,0.081 -107.4,-0.1398 -106.08,-0.4905 z m 614.0286,-0.3331 c 0.27725,-0.4486 0.90624,-0.5671 1.39778,-0.2633 1.256,0.7762 1.1146,1.079 -0.50411,1.079 -0.76877,0 -1.17092,-0.3671 -0.89367,-0.8157 z m -10.66857,-2.2985 c -1.584,-1.3556 -2.32109,-2.1803 -1.63796,-1.8326 0.68314,0.3477 1.97914,0.055 2.88,-0.6505 1.45584,-1.14 1.49943,-1.1055 0.39216,0.3108 -1.05964,1.3555 -0.92016,1.8215 0.9336,3.12 1.19866,0.8396 1.7593,1.5244 1.2458,1.5217 -0.51351,0 -2.2296,-1.1138 -3.8136,-2.4694 z m 42.70565,0.623 c 1.3121,-1.0216 2.5549,-1.6882 2.7617,-1.4814 0.7727,0.7727 6.4246,-2.8142 11.1992,-7.1074 4.6869,-4.2142 4.6632,-4.17 -0.4659,0.8696 -3.3641,3.3052 -7.3815,6.115 -10.6423,7.4431 -4.724,1.9242 -5.0041,1.9512 -2.8527,0.2761 z m 476.8944,1.2154 c 0.66,-0.2663 1.74,-0.2663 2.4,0 0.66,0.2663 0.12,0.4842 -1.2,0.4842 -1.32,0 -1.86,-0.2179 -1.2,-0.4842 z m 6.78,-0.98 c 0.693,-0.2773 1.521,-0.2432 1.84,0.076 0.319,0.319 -0.2481,0.5459 -1.26,0.5043 -1.1184,-0.046 -1.3458,-0.2736 -0.58,-0.5801 z m -409.3204,-5.3442 -2.8196,-3.12 3.12,2.8196 c 1.716,1.5508 3.12,2.9548 3.12,3.12 0,0.7417 -0.7921,0.088 -3.4204,-2.8196 z M 1032,1385.9951 c 0,-0.264 0.6096,-0.9859 1.3546,-1.6042 1.0436,-0.8661 1.5197,-0.8379 2.0739,0.1224 0.3956,0.6857 0.3659,0.9264 -0.066,0.5351 -0.432,-0.3915 -1.3654,-0.2306 -2.0739,0.3575 -0.7086,0.5881 -1.2884,0.8532 -1.2884,0.5892 z m -626.87998,-2.0376 c 0,-0.1993 0.756,-0.9553 1.68,-1.68 1.52262,-1.194 1.55657,-1.1602 0.36246,0.3625 -1.25412,1.5991 -2.04246,2.1077 -2.04246,1.3175 z m 760.32008,0.062 c 0,-0.1652 1.404,-1.5692 3.12,-3.12 l 3.12,-2.8196 -2.8197,3.12 c -2.6283,2.9083 -3.4203,3.5613 -3.4203,2.8196 z m -186.36255,-3.2996 c -1.19405,-1.5227 -1.16016,-1.5566 0.36249,-0.3625 1.59908,1.2541 2.10769,2.0425 1.31751,2.0425 -0.1993,0 -0.9553,-0.756 -1.68,-1.68 z m -570.11753,-0.6028 c 0,-0.1993 0.756,-0.9553 1.68,-1.68 1.52262,-1.194 1.55657,-1.1602 0.36246,0.3625 -1.25412,1.5991 -2.04246,2.1077 -2.04246,1.3175 z m 566.35606,-5.4797 c -0.58935,-1.1013 -0.89079,-2.1831 -0.6698,-2.4041 0.22109,-0.221 0.89482,0.68 1.49722,2.0023 1.32298,2.9035 0.67882,3.2163 -0.82742,0.4018 z m 74.54282,0.2422 c -0.2719,-0.44 0.1156,-0.8 0.8611,-0.8 0.7456,0 1.1331,0.36 0.8612,0.8 -0.272,0.44 -0.6595,0.8 -0.8612,0.8 -0.2016,0 -0.5891,-0.36 -0.8611,-0.8 z m -4.9673,-3.2333 c -0.3956,-0.6857 -0.3612,-0.9217 0.077,-0.5246 1.0674,0.9683 4.4303,-2.1537 3.6609,-3.3988 -0.3557,-0.5755 -0.1291,-0.6853 0.5492,-0.2662 0.8108,0.5011 0.8575,1.0722 0.1567,1.9167 -0.5491,0.6616 -0.6781,1.5951 -0.2866,2.0745 0.3914,0.4794 0.3194,0.5514 -0.16,0.1601 -0.4795,-0.3915 -1.413,-0.2625 -2.0746,0.2865 -0.8503,0.7057 -1.4137,0.6329 -1.9222,-0.2482 z m 412.1485,-0.4425 c 0.66,-0.2663 1.74,-0.2663 2.4,0 0.66,0.2663 0.12,0.4842 -1.2,0.4842 -1.32,0 -1.86,-0.2179 -1.2,-0.4842 z m 7.74,-0.98 c 0.693,-0.2773 1.521,-0.2432 1.84,0.076 0.319,0.319 -0.2481,0.5459 -1.26,0.5043 -1.1184,-0.046 -1.3458,-0.2736 -0.58,-0.5801 z m 109.62,-6.4267 c 0,-0.1993 0.756,-0.9553 1.68,-1.68 1.5226,-1.194 1.5565,-1.1602 0.3625,0.3625 -1.2542,1.5991 -2.0425,2.1077 -2.0425,1.3175 z m -70.6984,-9.9196 c 12.5582,-17.6418 19.5949,-46.8463 16.9525,-70.3579 -2.9583,-26.3211 -14.0726,-49.6004 -32.3812,-67.8239 -12.2099,-12.153 -26.2379,-20.8548 -42.2895,-26.2325 -17.6475,-5.9124 -14.5808,-5.7836 -137.6292,-5.7836 -61.7068,0 -112.1942,-0.1512 -112.1942,-0.336 0,-0.1848 2.9909,-7.6368 6.6465,-16.56 l 6.6465,-16.224 119.8335,-0.2784 c 124.6188,-0.2894 131.0906,-0.123 146.0442,3.7569 15.3455,3.9816 32.0649,12.7884 44.2134,23.2891 47.7078,41.2369 51.5529,113.3882 8.5044,159.5797 -6.5881,7.0691 -18.9615,17.0911 -24.879,20.1512 l -2.7408,1.4173 z m 81.2584,0.2021 c 1.7911,-1.848 3.4726,-3.36 3.7366,-3.36 0.264,0 -0.9855,1.512 -2.7766,3.36 -1.7912,1.848 -3.4726,3.36 -3.7366,3.36 -0.264,0 0.9854,-1.512 2.7766,-3.36 z m -620.41609,-2.5191 c 0.65127,-0.6561 1.42589,-0.9511 1.72147,-0.6555 0.29549,0.2956 -0.23731,0.8324 -1.18406,1.1929 -1.36819,0.521 -1.4784,0.4107 -0.53741,-0.5374 z m 628.09609,-6.0034 c 0,-0.1993 0.756,-0.9553 1.68,-1.68 1.5226,-1.194 1.5565,-1.1602 0.3625,0.3625 -1.2542,1.5991 -2.0425,2.1077 -2.0425,1.3175 z M 942.59759,1310.64 c -1.19412,-1.5227 -1.16016,-1.5565 0.36245,-0.3625 1.59912,1.2541 2.10766,2.0425 1.31755,2.0425 -0.19935,0 -0.95535,-0.756 -1.68,-1.68 z m -9.89583,-20.6814 c 0.36051,-0.9467 0.8973,-1.4795 1.19288,-1.184 0.29557,0.2955 6.1e-4,1.0702 -0.65547,1.7214 -0.94812,0.941 -1.05838,0.8308 -0.53741,-0.5374 z M 1622.5517,1276.8 c 0,-1.32 0.2179,-1.86 0.4842,-1.2 0.2663,0.66 0.2663,1.74 0,2.4 -0.2663,0.66 -0.4842,0.12 -0.4842,-1.2 z m 0.9955,-10.08 c 0.019,-1.584 0.2347,-2.1157 0.4782,-1.1818 0.2433,0.9341 0.2274,2.2301 -0.036,2.88 -0.2629,0.6501 -0.462,-0.1142 -0.4425,-1.6982 z m 0.1006,-8.16 c 0,-2.904 0.1799,-4.092 0.3999,-2.64 0.22,1.452 0.22,3.828 0,5.28 -0.22,1.452 -0.3999,0.264 -0.3999,-2.64 z m -1.0961,-13.44 c 0,-1.32 0.2179,-1.86 0.4842,-1.2 0.2663,0.66 0.2663,1.74 0,2.4 -0.2663,0.66 -0.4842,0.12 -0.4842,-1.2 z m -1.0359,-6.32 c 0.046,-1.1184 0.2736,-1.3458 0.5801,-0.58 0.2773,0.693 0.2432,1.521 -0.076,1.84 -0.319,0.319 -0.5459,-0.248 -0.5043,-1.26 z m -446.4757,-10.3625 c 0,-0.1993 0.756,-0.9553 1.68,-1.68 1.5226,-1.194 1.5565,-1.1602 0.3624,0.3625 -1.2541,1.5991 -2.0424,2.1077 -2.0424,1.3175 z m -754.78899,-56.0358 c -0.36174,-8.2844 -1.03426,-12.6845 -2.53137,-16.5617 -1.12132,-2.904 -2.03897,-5.388 -2.03924,-5.52 -2.6e-4,-0.132 123.58063,-0.24 274.62423,-0.24 261.11504,0 274.59784,0.083 274.07944,1.68 -0.29981,0.924 -3.07574,8.376 -6.16867,16.56 l -5.62347,14.88 -265.92416,0.2417 -265.92416,0.2418 z m 1168.96859,0.4783 -2.8196,-3.12 3.12,2.8196 c 1.716,1.5508 3.12,2.9548 3.12,3.12 0,0.7417 -0.7921,0.088 -3.4204,-2.8196 z m -9.6308,-9.6 -1.8288,-2.16 2.16,1.8288 c 2.0298,1.7186 2.597,2.4912 1.8288,2.4912 -0.1822,0 -1.1542,-0.972 -2.16,-2.16 z m -71.9088,-32.5038 c -2.112,-0.321 15.6,-0.5527 39.36,-0.5147 23.76,0.037 38.448,0.1899 32.64,0.3376 -24.0204,0.6111 -68.4265,0.7204 -72,0.1771 z m -1124.88008,-0.532 c 0.66,-0.2663 1.74,-0.2663 2.4,0 0.66,0.2663 0.12,0.4842 -1.2,0.4842 -1.32,0 -1.86,-0.2179 -1.2,-0.4842 z m 93.18,-0.98 c 0.693,-0.2773 1.52101,-0.2432 1.84001,0.076 0.31899,0.319 -0.24801,0.5459 -1.26,0.5043 -1.11836,-0.046 -1.34583,-0.2736 -0.58001,-0.5801 z m 1121.22008,0.02 c 0.66,-0.2663 1.74,-0.2663 2.4,0 0.66,0.2663 0.12,0.4842 -1.2,0.4842 -1.32,0 -1.86,-0.2179 -1.2,-0.4842 z m -52.32,-20.1859 c 0.924,-0.2416 2.436,-0.2416 3.36,0 0.924,0.2414 0.168,0.439 -1.68,0.439 -1.848,0 -2.604,-0.1976 -1.68,-0.439 z m 9.18,-0.9541 c 0.693,-0.2773 1.521,-0.2432 1.84,0.076 0.319,0.319 -0.2481,0.5459 -1.26,0.5042 -1.1184,-0.046 -1.3458,-0.2736 -0.58,-0.58 z m 112.5,-8.3469 c 0,-0.1993 0.756,-0.9553 1.68,-1.68 1.5226,-1.194 1.5565,-1.1602 0.3625,0.3625 -1.2542,1.5991 -2.0425,2.1077 -2.0425,1.3175 z m -72.6319,-8.2778 c 20.1988,-33.0153 22.5592,-72.4598 6.4038,-107.01416 -7.2393,-15.48394 -23.2098,-34.15362 -37.3709,-43.68676 -8.1061,-5.45704 -21.0636,-11.81906 -29.0727,-14.2746 -16.3901,-5.025 -14.3188,-4.94418 -126.7048,-4.94418 -83.2089,0 -104.5408,-0.24544 -104.2939,-1.2 0.1707,-0.66 3.1184,-8.21603 6.5504,-16.79118 l 6.24,-15.59118 111.36,0.008 c 66.7078,0.005 115.0168,0.38918 120.48,0.95891 27.4036,2.85783 49.5431,13.51056 68.64,33.02694 14.3998,14.71612 23.0773,30.01515 28.4386,50.13874 2.8561,10.72032 3.5904,35.02307 1.4084,46.61137 -6.0179,31.9594 -23.2488,56.9546 -51.8844,75.2639 l -2.8374,1.8141 2.6429,-4.3197 z m 87.5119,-6.7197 c 0.9557,-1.056 1.9536,-1.92 2.2176,-1.92 0.264,0 -0.3019,0.864 -1.2576,1.92 -0.9557,1.056 -1.9536,1.92 -2.2176,1.92 -0.264,0 0.3019,-0.864 1.2576,-1.92 z m 29.3557,-60.08 c 0.046,-1.1184 0.2736,-1.3458 0.5801,-0.58 0.2773,0.693 0.2432,1.521 -0.076,1.84 -0.319,0.319 -0.5459,-0.248 -0.5043,-1.26 z m 0.96,-5.76 c 0.046,-1.1184 0.2736,-1.3458 0.5801,-0.58 0.2773,0.693 0.2432,1.521 -0.076,1.84 -0.319,0.319 -0.5459,-0.248 -0.5043,-1.26 z m 1.0714,-7.6 c 0.019,-1.584 0.2347,-2.1157 0.4782,-1.1818 0.2433,0.9341 0.2274,2.2301 -0.036,2.88 -0.2629,0.6501 -0.462,-0.1142 -0.4425,-1.6982 z m 0,-24.96 c 0.019,-1.584 0.2347,-2.11574 0.4782,-1.18176 0.2433,0.93408 0.2274,2.23008 -0.036,2.88 -0.2629,0.65002 -0.462,-0.11424 -0.4425,-1.69824 z m -1.0714,-7.75997 c 0.046,-1.1184 0.2736,-1.34582 0.5801,-0.58003 0.2773,0.69302 0.2432,1.52102 -0.076,1.84003 -0.319,0.31901 -0.5459,-0.24806 -0.5043,-1.26 z M 509.76002,911.21424 c 0,-10.03943 -1.66757,-19.08909 -4.05686,-22.01588 -0.78516,-0.9618 54.27856,-1.15341 275.85796,-0.96 L 1058.4,888.48 l 0.2872,6.62493 c 0.2474,5.70755 -0.2178,7.9999 -3.36,16.55441 l -3.6472,9.92949 -270.95996,0.006 -270.96002,0.005 z M 1674.6943,906 l -6.6942,-6.96 6.96,6.69425 c 3.828,3.68184 6.96,6.81384 6.96,6.96 0,0.70417 -1.0081,-0.2298 -7.2258,-6.69425 z m -1176.50595,-26.4 -3.30833,-3.6 3.6,3.30832 c 1.98,1.81958 3.6,3.43958 3.6,3.6 0,0.73308 -0.81237,0.0424 -3.89167,-3.30832 z M 1602.0601,869.10421 c 0.693,-0.27731 1.521,-0.24321 1.84,0.0758 0.319,0.319 -0.2481,0.54589 -1.26,0.50421 -1.1184,-0.0461 -1.3458,-0.27354 -0.58,-0.57999 z M 472.57829,868.13473 c 0.93405,-0.2434 2.23005,-0.2274 2.88,0.0356 0.64995,0.26297 -0.11427,0.46211 -1.69827,0.44255 -1.584,-0.0196 -2.11578,-0.23472 -1.18173,-0.47812 z m 1121.28001,0 c 0.9341,-0.2434 2.2301,-0.2274 2.88,0.0356 0.65,0.26297 -0.1142,0.46211 -1.6982,0.44255 -1.584,-0.0196 -2.1158,-0.23472 -1.1818,-0.47812 z M 809.28004,756.96 c 0,-5.72 0.20704,-10.19296 0.46009,-9.93992 0.68358,0.6836 0.79531,19.08452 0.11997,19.75987 -0.31904,0.31902 -0.58006,-4.09995 -0.58006,-9.81995 z m 0.45993,-97.44 c 0,-47.784 0.11692,-67.332 0.25982,-43.44 0.14289,23.892 0.14289,62.988 0,86.88 -0.1429,23.892 -0.25982,4.344 -0.25982,-43.44 z m 378.03833,-86.10527 c 0.9341,-0.2434 2.2301,-0.2274 2.88,0.0356 0.65,0.26297 -0.1142,0.46211 -1.6982,0.44255 -1.584,-0.0196 -2.1158,-0.23472 -1.1818,-0.47812 z m -23.04,-0.96 c 0.9341,-0.2434 2.2301,-0.2274 2.88,0.0356 0.65,0.26297 -0.1142,0.46211 -1.6982,0.44255 -1.584,-0.0196 -2.1158,-0.23472 -1.1818,-0.47812 z m -156.9828,-9.68179 c 0.1947,-3.02112 0.6534,-11.54094 1.0193,-18.93294 l 0.6652,-13.44 13.44,-0.0276 c 18.4658,-0.0378 17.3374,0.23864 19.2275,-4.71076 0.8944,-2.34205 2.204,-4.47997 2.9101,-4.75092 2.2599,-0.86723 13.3122,1.58428 15.3644,3.40799 2.8611,2.54258 4.1765,2.19076 5.7325,-1.53312 0.7571,-1.8119 1.7594,-3.53104 2.2275,-3.82032 1.5379,-0.95051 36.0726,5.2549 37.1856,6.68176 1.0341,1.32574 0.9702,1.93895 -2.5008,23.95291 -0.4995,3.168 -0.9168,6.05489 -0.9275,6.41531 -0.036,1.21453 -3.2632,1.66188 -47.0593,6.52273 -24.024,2.66638 -44.5706,5.04593 -45.6593,5.2879 -1.8496,0.41112 -1.9561,0.0802 -1.6252,-5.053 z M 1188.9601,506.88 c 0.9556,-1.056 1.9536,-1.92 2.2176,-1.92 0.264,0 -0.302,0.864 -1.2576,1.92 -0.9557,1.056 -1.9536,1.92 -2.2176,1.92 -0.264,0 0.3019,-0.864 1.2576,-1.92 z M 959.11584,490.96 c 0.0461,-1.11835 0.27354,-1.34582 0.57999,-0.58 0.27731,0.693 0.24322,1.521 -0.0757,1.84 -0.319,0.319 -0.5459,-0.248 -0.50422,-1.26 z M 1193.3558,490 c 0.046,-1.11835 0.2736,-1.34582 0.58,-0.58 0.2774,0.693 0.2433,1.521 -0.076,1.84 -0.319,0.319 -0.546,-0.248 -0.5043,-1.26 z M 960.07579,479.44 c 0.0461,-1.11835 0.2736,-1.34582 0.58003,-0.58 0.27734,0.693 0.24326,1.521 -0.0758,1.84 -0.31901,0.319 -0.54595,-0.248 -0.50429,-1.26 z m 234.24001,0 c 0.046,-1.11835 0.2736,-1.34582 0.58,-0.58 0.2774,0.693 0.2433,1.521 -0.076,1.84 -0.319,0.319 -0.546,-0.248 -0.5043,-1.26 z m 0.96,-9.6 c 0.046,-1.11835 0.2736,-1.34582 0.58,-0.58 0.2774,0.693 0.2433,1.521 -0.076,1.84 -0.319,0.319 -0.546,-0.248 -0.5043,-1.26 z m -234.24001,-1.92 c 0.0461,-1.11835 0.2736,-1.34582 0.58003,-0.58 0.27734,0.693 0.24326,1.521 -0.0758,1.84 -0.31901,0.319 -0.54595,-0.248 -0.50429,-1.26 z m 235.20001,-8.64 c 0.046,-1.11835 0.2736,-1.34582 0.58,-0.58 0.2774,0.693 0.2433,1.521 -0.076,1.84 -0.319,0.319 -0.546,-0.248 -0.5043,-1.26 z M 961.99579,456.4 c 0.0461,-1.11835 0.2736,-1.34582 0.58003,-0.58 0.27734,0.693 0.24326,1.521 -0.0758,1.84 -0.31901,0.319 -0.54595,-0.248 -0.50429,-1.26 z m 0.96,-11.52 c 0.0461,-1.11835 0.2736,-1.34582 0.58003,-0.58 0.27734,0.693 0.24326,1.521 -0.0758,1.84 -0.31901,0.319 -0.54595,-0.248 -0.50429,-1.26 z m 1.03584,-10.96 c 0,-1.32 0.21792,-1.86 0.48422,-1.2 0.26631,0.66 0.26631,1.74 0,2.4 -0.2663,0.66 -0.48422,0.12 -0.48422,-1.2 z m 0.88416,-11.12 c 0.0461,-1.11835 0.2736,-1.34582 0.58003,-0.58 0.27734,0.693 0.24326,1.521 -0.0758,1.84 -0.31901,0.319 -0.54595,-0.248 -0.50429,-1.26 z m 0.96,-11.52 c 0.0461,-1.11835 0.2736,-1.34582 0.58003,-0.58 0.27734,0.693 0.24326,1.521 -0.0758,1.84 -0.31901,0.319 -0.54595,-0.248 -0.50429,-1.26 z m 0.96,-11.52 c 0.0461,-1.11835 0.2736,-1.34582 0.58003,-0.58 0.27734,0.693 0.24326,1.521 -0.0758,1.84 -0.31901,0.319 -0.54595,-0.248 -0.50429,-1.26 z m 0.96,-11.52 c 0.0461,-1.11835 0.2736,-1.34582 0.58003,-0.58 0.27734,0.693 0.24326,1.521 -0.0758,1.84 -0.31901,0.319 -0.54595,-0.248 -0.50429,-1.26 z m 0.96,-11.52 c 0.0461,-1.11835 0.2736,-1.34582 0.58003,-0.58 0.27734,0.693 0.24326,1.521 -0.0758,1.84 -0.31901,0.319 -0.54595,-0.248 -0.50429,-1.26 z M 1067.34,282.54421 c 0.6931,-0.27731 1.5211,-0.24321 1.8401,0.0757 0.319,0.319 -0.2481,0.54589 -1.26,0.50421 -1.1184,-0.0461 -1.3458,-0.27354 -0.5801,-0.57999 z m -85.59,-7.42153 c -6.25354,-0.57347 -11.09962,-1.30867 -10.769,-1.63376 0.33072,-0.3251 -0.81676,-0.43482 -2.54985,-0.24384 l -3.15111,0.34725 v -10.42844 -10.42843 l -4.16332,-4.51667 c -2.28982,-2.48416 -5.17418,-6.80243 -6.40969,-9.59615 -1.97067,-4.45602 -8.1072,-27.57766 -9.44372,-35.58264 l -0.48084,-2.88 6.88879,0.13165 c 12.27093,0.23451 27.55979,-4.28919 37.75816,-11.17195 2.34672,-1.58383 4.41658,-2.8797 4.59946,-2.8797 0.18288,0 3.29328,2.92385 6.91192,6.49745 3.9718,3.92242 8.8114,7.57036 12.2117,9.20466 l 5.6325,2.7072 -0.6335,4.77539 c -1.0225,7.70761 -5.9202,26.04487 -8.0949,30.30774 -1.1036,2.16312 -3.7784,5.98022 -5.9441,8.48245 l -3.9375,4.54951 0.5985,9.6978 c 0.3291,5.33379 0.6858,10.5618 0.7925,11.6178 0.1672,1.6538 -0.4049,1.93146 -4.12595,2.00268 -2.376,0.0455 -9.43652,-0.38653 -15.69005,-0.96 z m 74.01,-21.35847 c 0.66,-0.26631 1.74,-0.26631 2.4,0 0.66,0.26631 0.12,0.48422 -1.2,0.48422 -1.32,0 -1.86,-0.21791 -1.2,-0.48422 z M 891.03162,251.52 c 0,-1.32 0.2179,-1.86 0.48421,-1.2 0.26631,0.66 0.26631,1.74 0,2.4 -0.26631,0.66 -0.48421,0.12 -0.48421,-1.2 z m 15.44842,-4.50176 c 0.924,-0.24146 2.436,-0.24146 3.36,0 0.924,0.24147 0.168,0.43904 -1.68,0.43904 -1.848,0 -2.604,-0.19757 -1.68,-0.43904 z m 12.24,-3.5407 c 0,-0.19934 0.756,-0.95534 1.68,-1.68 1.52262,-1.19411 1.55658,-1.16016 0.36246,0.36246 -1.25412,1.59912 -2.04246,2.10766 -2.04246,1.31754 z M 926.66151,218.88 c 0,-2.376 0.18722,-3.348 0.41603,-2.16 0.22883,1.188 0.22883,3.132 0,4.32 -0.22881,1.188 -0.41603,0.216 -0.41603,-2.16 z m 112.21009,-4.8 c 0,-1.32 0.218,-1.86 0.4843,-1.2 0.2663,0.66 0.2663,1.74 0,2.4 -0.2663,0.66 -0.4843,0.12 -0.4843,-1.2 z m 1.07,-22.08 c 0,-2.376 0.1872,-3.348 0.4159,-2.16 0.2289,1.188 0.2289,3.132 0,4.32 -0.2287,1.188 -0.4159,0.216 -0.4159,-2.16 z M 927.43583,179.92 c 0.0461,-1.11835 0.27355,-1.34582 0.58,-0.58 0.27731,0.693 0.24321,1.521 -0.0758,1.84 -0.31899,0.319 -0.54589,-0.248 -0.50421,-1.26 z m 103.48177,-28 c -1.1941,-1.52262 -1.1602,-1.55657 0.3624,-0.36246 1.5991,1.25412 2.1077,2.04246 1.3176,2.04246 -0.1993,0 -0.9553,-0.756 -1.68,-1.68 z m -32.69755,-8.57579 c 0.69302,-0.27731 1.52102,-0.24321 1.84005,0.0757 0.319,0.319 -0.24809,0.54589 -1.26002,0.50421 -1.1184,-0.0461 -1.34583,-0.27354 -0.58003,-0.57999 z m -36.54001,-0.94 c 0.66,-0.26631 1.74,-0.26631 2.4,0 0.66,0.26631 0.12,0.48422 -1.2,0.48422 -1.32,0 -1.86,-0.21791 -1.2,-0.48422 z m 23.53825,-0.0295 c 0.93408,-0.2434 2.23008,-0.2274 2.88,0.0356 0.65001,0.26297 -0.11424,0.46211 -1.69824,0.44255 -1.584,-0.0196 -2.11575,-0.23472 -1.18176,-0.47812 z"
         id="path40" />
      <path
         style="fill:#f7ef4c;stroke-width:0.96"
         d="m 810.24862,667.65923 -0.009,-94.10079 85.68,6.45641 c 91.94516,6.92853 99.21524,7.29442 103.24772,5.19636 5.23976,-2.72628 9.79226,-9.8953 9.79226,-15.42037 0,-1.74418 0.5129,-2.43084 1.8155,-2.43084 2.763,0 86.6742,-9.48749 89.1446,-10.0792 1.3389,-0.32072 2.16,-1.24025 2.16,-2.41909 0,-1.04594 0.54,-1.90346 1.2,-1.90559 0.66,-0.002 12.0901,4.64186 25.4003,10.32 l 24.2004,10.32388 0.039,59.28 0.039,59.28 -126.96,8.1e-4 c -78.99356,5e-4 -130.8655,0.37114 -137.29716,0.98105 -10.82789,1.0268 -22.73543,4.24945 -30.9429,8.37437 -20.55783,10.33199 -36.68232,28.85682 -44.2665,50.8562 l -3.23632,9.38757 -0.009,-94.10077 z M 959.52004,581.65829 C 905.39411,577.29621 809.85571,570.36421 809.22602,570.75338 807.87074,571.591 785.5011,547.33584 781.06555,540.21929 772.4926,526.46455 768.11238,509.38174 769.2791,494.2521 c 0.70605,-9.1559 40.12956,-182.15025 43.34443,-190.19974 8.45684,-21.17453 26.76055,-35.11287 49.45651,-37.66133 2.904,-0.32607 13.056,0.075 22.56,0.8912 9.504,0.81623 27.25036,2.34392 39.43635,3.39486 12.186,1.05094 29.25,2.37662 37.91997,2.94594 8.67005,0.56933 22.24369,1.67383 30.16369,2.45444 7.91995,0.78062 39.02395,3.55711 69.11995,6.16999 30.0961,2.61288 56.9194,5.3509 59.6075,6.08449 15.155,4.1358 28.8216,15.14715 36.1804,29.15097 3.9561,7.52839 17.751,54.66622 16.3817,55.97689 -0.4452,0.42619 -16.7252,5.5599 -36.1776,11.40827 l -35.368,10.63338 -56.686,-17.85999 c -49.08787,-15.46606 -57.30605,-17.80042 -61.31155,-17.41554 -5.30775,0.51002 -10.58065,3.99387 -12.93476,8.54619 -1.1183,2.16263 -2.72083,17.2943 -6.22185,58.75036 -2.59364,30.71064 -4.83136,56.50566 -4.97274,57.32227 -0.20146,1.16365 -7.10832,-1.27399 -31.93706,-11.27158 -17.424,-7.01597 -33.92879,-13.826 -36.67732,-15.13339 -8.79193,-4.18203 -8.37555,-1.91985 -8.92268,-48.47615 -0.41664,-35.45212 -0.67009,-40.84363 -1.92,-40.84363 -1.25144,0 -1.47582,5.02823 -1.71352,38.4 -0.1973,27.69875 0.0482,39.57291 0.88084,42.60883 2.17894,7.94453 4.06879,9.03123 43.17105,24.82401 l 35.90163,14.50009 0.539,6.55353 c 0.61946,7.53197 1.50177,9.51635 5.97921,13.44759 2.60487,2.28706 6.28925,3.63273 18.99668,6.93825 8.67081,2.2555 17.60107,4.58352 19.84507,5.17341 l 4.08,1.07251 -0.049,4.84088 c -0.027,2.6625 -0.6014,14.25142 -1.2766,25.75317 -1.3501,22.99253 -1.5649,23.72776 -8.26485,28.28773 -3.8929,2.64948 -7.56797,2.66255 -38.8898,0.13829 z m 213.18246,-8.70036 c -13.4715,-0.64533 -19.4403,-1.28222 -20.16,-2.15117 -0.5624,-0.67895 -11.9604,-5.93307 -25.3289,-11.67584 l -24.3065,-10.44141 0.6212,-3.38476 c 0.3417,-1.86161 0.9115,-3.64511 1.2664,-3.96332 0.355,-0.31821 18.3574,-7.39304 40.0054,-15.72183 21.648,-8.32878 40.5439,-15.74542 41.9909,-16.4814 5.1187,-2.60344 5.6892,-4.67925 8.0662,-29.34845 1.225,-12.71281 2.3624,-23.24929 2.5275,-23.41441 0.1651,-0.16511 2.6179,7.99889 5.4507,18.14223 2.8329,10.14334 8.1691,29.02643 11.8585,41.96243 7.8975,27.69087 8.5093,33.64338 4.2917,41.76 -4.6311,8.91271 -12.5463,14.29472 -22.3455,15.19412 -2.64,0.24231 -13.412,0.028 -23.9376,-0.47619 z M 1018.8,530.16577 c -7.7137,-0.315 -7.92,-0.38569 -7.92,-2.71473 0,-1.31522 0.5859,-2.61611 1.302,-2.89089 1.1465,-0.43996 23.508,4.97701 24.5381,5.94424 0.39,0.36626 -1.562,0.32938 -17.9201,-0.33862 z"
         id="path38" />
      <path
         style="fill:#a5b2c0;stroke-width:0.96"
         d="m 599.04003,1654.2096 c 1.848,-0.3352 254.352,-0.3928 561.12007,-0.128 l 557.76,0.4817 -561.12,0.1279 c -308.61607,0.07 -559.60807,-0.1463 -557.76007,-0.4816 z m 1123.92007,-0.7654 c 0.66,-0.2663 1.74,-0.2663 2.4,0 0.66,0.2663 0.12,0.4842 -1.2,0.4842 -1.32,0 -1.86,-0.2179 -1.2,-0.4842 z m 6.78,-0.98 c 0.693,-0.2773 1.521,-0.2432 1.84,0.076 0.319,0.319 -0.2481,0.5459 -1.26,0.5043 -1.1184,-0.046 -1.3458,-0.2736 -0.58,-0.5801 z m -57.66,-19.18 c 0.66,-0.2663 1.74,-0.2663 2.4,0 0.66,0.2663 0.12,0.4842 -1.2,0.4842 -1.32,0 -1.86,-0.2179 -1.2,-0.4842 z m 7.74,-0.98 c 0.693,-0.2773 1.521,-0.2432 1.84,0.076 0.319,0.319 -0.2481,0.5459 -1.26,0.5043 -1.1184,-0.046 -1.3458,-0.2736 -0.58,-0.5801 z m 113.46,-10.2667 c 0,-0.1993 0.756,-0.9553 1.68,-1.68 1.5226,-1.194 1.5565,-1.1602 0.3625,0.3625 -1.2542,1.5991 -2.0425,2.1077 -2.0425,1.3175 z m 9.6,-9.6 c 0,-0.1993 0.756,-0.9553 1.68,-1.68 1.5226,-1.194 1.5565,-1.1602 0.3625,0.3625 -1.2542,1.5991 -2.0425,2.1077 -2.0425,1.3175 z m -72,-2.88 c 0,-0.1993 0.756,-0.9553 1.68,-1.68 1.5226,-1.194 1.5565,-1.1602 0.3625,0.3625 -1.2542,1.5991 -2.0425,2.1077 -2.0425,1.3175 z m 14.4,-14.4 c 0,-0.1993 0.756,-0.9553 1.68,-1.68 1.5226,-1.194 1.5565,-1.1602 0.3625,0.3625 -1.2542,1.5991 -2.0425,2.1077 -2.0425,1.3175 z m 91.2757,-54.9175 c 0.046,-1.1184 0.2736,-1.3458 0.5801,-0.58 0.2773,0.693 0.2432,1.521 -0.076,1.84 -0.319,0.319 -0.5459,-0.248 -0.5043,-1.26 z m -65.2041,-7.12 c 0,-1.32 0.2179,-1.86 0.4842,-1.2 0.2663,0.66 0.2663,1.74 0,2.4 -0.2663,0.66 -0.4842,0.12 -0.4842,-1.2 z m 66.4515,-9.6 c 0,-6.072 0.1558,-8.556 0.3463,-5.52 0.1905,3.036 0.1905,8.004 0,11.04 -0.1905,3.036 -0.3463,0.552 -0.3463,-5.52 z m -66.4515,-9.6 c 0,-1.32 0.2179,-1.86 0.4842,-1.2 0.2663,0.66 0.2663,1.74 0,2.4 -0.2663,0.66 -0.4842,0.12 -0.4842,-1.2 z m 65.28,-7.68 c 0,-1.32 0.2179,-1.86 0.4842,-1.2 0.2663,0.66 0.2663,1.74 0,2.4 -0.2663,0.66 -0.4842,0.12 -0.4842,-1.2 z m -1.0359,-6.32 c 0.046,-1.1184 0.2736,-1.3458 0.5801,-0.58 0.2773,0.693 0.2432,1.521 -0.076,1.84 -0.319,0.319 -0.5459,-0.248 -0.5043,-1.26 z m -96.6161,-55.36 -2.8196,-3.12 3.12,2.8196 c 1.716,1.5508 3.12,2.9548 3.12,3.12 0,0.7417 -0.7921,0.088 -3.4204,-2.8196 z m -8.2221,-7.2 c -1.1941,-1.5227 -1.1602,-1.5565 0.3625,-0.3625 0.924,0.7247 1.68,1.4807 1.68,1.68 0,0.7902 -0.7884,0.2816 -2.0425,-1.3175 z m -722.9804,-41.2557 c 1.7255,-0.2137 4.3175,-0.2093 5.76,0.01 1.4426,0.219 0.031,0.3938 -3.1372,0.3884 -3.168,-0.01 -4.3482,-0.1846 -2.6228,-0.3982 z m 117.4693,-0.2848 c -13.0554,-2.7337 -21.5151,-10.9232 -32.2078,-31.1795 -4.1808,-7.92 -8.9891,-16.992 -10.685,-20.16 -20.0689,-37.4874 -27.3616,-51.7719 -28.6551,-56.1274 -1.9573,-6.5911 -1.8764,-15.426 0.2001,-21.8433 2.052,-6.3415 29.1312,-54.095 30.4213,-53.6472 0.528,0.1832 16.4041,4.3758 35.2801,9.3167 21.6776,5.6744 34.32,9.4191 34.32,10.1658 0,0.6502 -1.0923,4.5468 -2.4274,8.6588 -3.0433,9.3738 -3.9711,18.8062 -2.4456,24.8645 0.6341,2.5182 7.4091,20.9356 15.0556,40.9277 7.6465,19.9921 14.3774,38.7131 14.9577,41.6024 1.3575,6.7594 -0.1017,16.0817 -3.5993,22.9945 -4.8134,9.5136 -16.009,18.0073 -30.4524,23.1033 -4.9718,1.754 -14.6201,2.4003 -19.7622,1.3237 z m 605.4536,-1.5953 c 0.693,-0.2773 1.521,-0.2432 1.84,0.076 0.319,0.319 -0.2481,0.5459 -1.26,0.5043 -1.1184,-0.046 -1.3458,-0.2736 -0.58,-0.5801 z m -5.76,-0.96 c 0.693,-0.2773 1.521,-0.2432 1.84,0.076 0.319,0.319 -0.2481,0.5459 -1.26,0.5043 -1.1184,-0.046 -1.3458,-0.2736 -0.58,-0.5801 z m -10.14,-0.9659 c 0.924,-0.2416 2.436,-0.2416 3.36,0 0.924,0.2414 0.168,0.439 -1.68,0.439 -1.848,0 -2.604,-0.1976 -1.68,-0.439 z M 1059.84,1228.4375 c 0,-0.1993 0.756,-0.9553 1.68,-1.68 1.5227,-1.194 1.5566,-1.1602 0.3625,0.3625 -1.2541,1.5991 -2.0425,2.1077 -2.0425,1.3175 z m 12.9504,-19.8131 c -0.3316,-0.5367 -1.0052,-0.7272 -1.4967,-0.4234 -0.4915,0.3037 -0.8937,0.095 -0.8937,-0.4644 0,-1.4681 1.4923,-1.2487 2.88,0.4234 0.6574,0.792 0.9517,1.44 0.6543,1.44 -0.2975,0 -0.8123,-0.439 -1.1439,-0.9756 z m -117.20157,-2.1444 -1.8288,-2.16 2.16,1.8288 c 2.0299,1.7186 2.5971,2.4912 1.8288,2.4912 -0.1821,0 -1.1541,-0.972 -2.16,-2.16 z m -5.113,-9.92 c 0.046,-1.1184 0.2736,-1.3458 0.58,-0.58 0.2773,0.693 0.2433,1.521 -0.076,1.84 -0.319,0.319 -0.5459,-0.248 -0.5042,-1.26 z M 1059.1546,896.15999 c 0.01,-2.64 0.1936,-3.60606 0.4143,-2.1468 0.2207,1.45926 0.2148,3.61926 -0.013,4.8 -0.2278,1.18074 -0.4084,-0.0131 -0.4012,-2.6532 z m -225.43057,-54.48 -4.764,-5.04 5.04,4.76391 c 4.6833,4.42672 5.4803,5.31609 4.764,5.31609 -0.1519,0 -2.4199,-2.268 -5.04,-5.04 z m 495.95177,2.56 c 0.046,-1.11835 0.2736,-1.34582 0.58,-0.58 0.2774,0.693 0.2433,1.521 -0.076,1.84 -0.319,0.319 -0.546,-0.248 -0.5043,-1.26 z m 0.96,-6.72 c 0.046,-1.11835 0.2736,-1.34582 0.58,-0.58 0.2774,0.693 0.2433,1.521 -0.076,1.84 -0.319,0.319 -0.546,-0.248 -0.5043,-1.26 z m 1.1916,-15.76 c 0,-3.432 0.1742,-4.836 0.3871,-3.12 0.213,1.716 0.213,4.524 0,6.24 -0.2129,1.716 -0.3871,0.312 -0.3871,-3.12 z m -30.1898,-82.32 c -1.1941,-1.52262 -1.1602,-1.55657 0.3625,-0.36246 0.924,0.72466 1.68,1.48066 1.68,1.68 0,0.79012 -0.7884,0.28158 -2.0425,-1.31754 z m -8.0828,-9.12 -3.7947,-4.08 4.08,3.79483 c 3.7944,3.52915 4.5211,4.36517 3.7947,4.36517 -0.1567,0 -1.9927,-1.836 -4.08,-4.08 z M 837.12003,715.79753 c 0,-0.19934 0.756,-0.95534 1.68,-1.68 1.5227,-1.19411 1.5566,-1.16016 0.3625,0.36246 -1.2541,1.59912 -2.0425,2.10766 -2.0425,1.31754 z M 1217.0401,693.4442 c 0.66,-0.26631 1.74,-0.26631 2.4,0 0.66,0.26631 0.12,0.48422 -1.2,0.48422 -1.32,0 -1.86,-0.21791 -1.2,-0.48422 z m -244.72437,-1.04415 c 42.94167,-0.13826 112.92567,-0.13824 155.51997,4e-5 42.5944,0.13827 7.4604,0.2514 -78.0757,0.25138 -85.53597,-2e-5 -120.38587,-0.11315 -77.44427,-0.25142 z M 1192.3958,497.67999 c 0.046,-1.11835 0.2736,-1.34582 0.58,-0.58 0.2774,0.693 0.2433,1.521 -0.076,1.84 -0.319,0.319 -0.546,-0.248 -0.5043,-1.26 z m 2.88,-30.72 c 0.046,-1.11835 0.2736,-1.34582 0.58,-0.58 0.2774,0.693 0.2433,1.521 -0.076,1.84 -0.319,0.319 -0.546,-0.248 -0.5043,-1.26 z m -157.193,-234.64 c 0,-3.96 0.1694,-5.58 0.3766,-3.6 0.2071,1.98 0.2071,5.22 0,7.2 -0.2072,1.98 -0.3766,0.36 -0.3766,-3.6 z m -111.53117,-7.68 c 0,-1.32 0.2179,-1.86 0.4842,-1.2 0.2663,0.66 0.2663,1.74 0,2.4 -0.2663,0.66 -0.4842,0.12 -0.4842,-1.2 z m 112.31997,-14.4 c 0,-1.32 0.218,-1.86 0.4843,-1.2 0.2663,0.66 0.2663,1.74 0,2.4 -0.2663,0.66 -0.4843,0.12 -0.4843,-1.2 z m -111.43577,-27.44 c 0.046,-1.11835 0.2736,-1.34582 0.58,-0.58 0.2773,0.693 0.2432,1.521 -0.076,1.84 -0.319,0.319 -0.5459,-0.248 -0.5042,-1.26 z m 41.9242,-40.46775 c 2.772,-0.19392 7.308,-0.19392 10.08,0 2.7721,0.19392 0.504,0.35259 -5.04,0.35259 -5.544,0 -7.812,-0.15867 -5.04,-0.35259 z"
         id="path36" />
      <path
         style="fill:#f87522;stroke-width:0.96"
         d="m 394.24432,1390.1436 c 7.01287,-2.5247 13.28052,-7.1149 17.92276,-13.1259 l 3.99294,-5.1704 h 278.88001 278.88001 l 2.63424,4.6904 c 1.44884,2.5796 5.25351,7.1152 8.45473,10.079 l 5.82048,5.3887 -300.77474,-0.035 c -294.48253,-0.034 -300.67088,-0.072 -295.81043,-1.8218 z m 640.36368,-0.5304 c 5.5201,-2.509 13.5823,-9.5433 16.6772,-14.551 l 1.9914,-3.2222 h 21.4996 21.4996 l 1.6159,2.64 c 4.6466,7.5916 7.0051,10.498 11.2346,13.8442 l 4.6462,3.6758 -42.0862,-0.056 -42.0863,-0.056 5.008,-2.2761 z m 122.6721,-0.1752 c 6.771,-3.515 11.3446,-7.3279 15.3745,-12.8179 l 3.4824,-4.7439 144.6515,-0.2581 144.6516,-0.2581 9.4924,-2.6183 c 44.8807,-12.3794 77.3713,-49.9689 82.3353,-95.2563 6.6988,-61.1137 -36.3897,-114.914 -98.0426,-122.4156 -5.1893,-0.6314 -51.8915,-0.9898 -128.9827,-0.9898 -96.2916,0 -120.7514,-0.2438 -120.3731,-1.2 0.2612,-0.66 2.0807,-5.196 4.0436,-10.08 l 3.5686,-8.88 142.2192,0.01 c 136.3581,0.01 142.6742,0.082 153.2593,1.8694 54.8622,9.2641 96.4901,49.1806 108.1723,103.7255 2.4538,11.4567 2.4442,40.3171 -0.017,51.6175 -5.723,26.276 -17.4306,47.8485 -36.0999,66.5178 -18.434,18.4341 -38.6361,29.5355 -65.8153,36.1666 -6.1969,1.5119 -20.7328,1.6578 -186.72,1.8737 l -180,0.2341 4.8,-2.4916 z M 413.70562,1147.5783 c -3.55231,-6.6375 -15.69734,-14.9561 -24.33641,-16.6689 -2.2569,-0.4475 15.88705,-0.8253 42.63081,-0.8878 121.46075,-0.284 539.89337,-0.048 540.24598,0.3044 0.21926,0.2192 -1.2168,4.7535 -3.19114,10.0763 l -3.58973,9.6777 H 690.25478 415.04446 Z m 1255.73448,-50.6608 c 0,-0.1993 0.756,-0.9553 1.68,-1.68 1.5226,-1.194 1.5565,-1.1602 0.3625,0.3625 -1.2542,1.5991 -2.0425,2.1077 -2.0425,1.3175 z M 1647.6828,999.36 c 0,-3.96 0.1695,-5.58 0.3766,-3.6 0.2071,1.98 0.2071,5.22 0,7.2 -0.2071,1.98 -0.3766,0.36 -0.3766,-3.6 z M 1542.9783,888.29473 c 0.9341,-0.2434 2.2301,-0.2274 2.88,0.0356 0.65,0.26297 -0.1142,0.46211 -1.6982,0.44255 -1.584,-0.0196 -2.1158,-0.23472 -1.1818,-0.47812 z M 883.07758,457.2 c -1.19411,-1.52262 -1.16016,-1.55657 0.36246,-0.36246 1.59912,1.25412 2.10766,2.04246 1.31754,2.04246 -0.19934,0 -0.95534,-0.756 -1.68,-1.68 z M 1055.82,281.58421 c 0.6931,-0.27731 1.5211,-0.24321 1.8401,0.0758 0.319,0.319 -0.2481,0.54589 -1.26,0.50421 -1.1184,-0.0461 -1.3458,-0.27354 -0.5801,-0.57999 z m -45.12,-3.84 c 0.6931,-0.27731 1.5211,-0.24321 1.8401,0.0757 0.319,0.319 -0.2481,0.54589 -1.26,0.50421 -1.1184,-0.0461 -1.3458,-0.27354 -0.5801,-0.57999 z m -68.15996,-5.76 c 0.693,-0.27731 1.52101,-0.24321 1.84001,0.0757 0.31899,0.319 -0.24801,0.54589 -1.26,0.50421 -1.11836,-0.0461 -1.34583,-0.27354 -0.58001,-0.57999 z m -11.52,-0.96 c 0.693,-0.27731 1.52101,-0.24321 1.84001,0.0758 0.31899,0.319 -0.24801,0.54589 -1.26,0.50421 -1.11836,-0.0461 -1.34583,-0.27354 -0.58001,-0.57999 z M 964.87579,270.16 c 0.0461,-1.11835 0.2736,-1.34582 0.58003,-0.58 0.27734,0.693 0.24326,1.521 -0.0758,1.84 -0.31901,0.319 -0.54595,-0.248 -0.50429,-1.26 z m -45.37575,-0.0958 c 0.693,-0.27732 1.52101,-0.24322 1.84001,0.0757 0.31899,0.319 -0.24801,0.54589 -1.26,0.50421 -1.11836,-0.0461 -1.34583,-0.27354 -0.58001,-0.57999 z m -11.52,-0.96 c 0.693,-0.27732 1.52101,-0.24322 1.84,0.0757 0.319,0.319 -0.248,0.54589 -1.26,0.50421 -1.11835,-0.0461 -1.34582,-0.27354 -0.58,-0.57999 z M 1000.6078,257.28 c 0,-2.904 0.1799,-4.092 0.3999,-2.64 0.2199,1.452 0.2199,3.828 0,5.28 -0.22,1.452 -0.3999,0.264 -0.3999,-2.64 z m -35.73201,-1.52 c 0.0461,-1.11835 0.2736,-1.34582 0.58003,-0.58 0.27734,0.693 0.24326,1.521 -0.0758,1.84 -0.31901,0.319 -0.54595,-0.248 -0.50429,-1.26 z"
         id="path34" />
      <path
         style="fill:#2165a7;stroke-width:0.96"
         d="m 1799.0401,1616.16 c 1.7912,-1.848 3.4726,-3.36 3.7366,-3.36 0.264,0 -0.9854,1.512 -2.7766,3.36 -1.7912,1.848 -3.4726,3.36 -3.7366,3.36 -0.264,0 0.9854,-1.512 2.7766,-3.36 z m 3.7175,-181.68 c -1.1941,-1.5227 -1.1602,-1.5565 0.3625,-0.3625 0.924,0.7247 1.68,1.4807 1.68,1.68 0,0.7902 -0.7884,0.2816 -2.0425,-1.3175 z M 1006.08,1222.5415 c -47.88654,-12.5809 -44.56229,-11.5505 -48.54491,-15.0474 -4.02628,-3.5351 -5.71683,-6.5817 -6.59845,-11.8916 -0.77852,-4.6888 0.0895,-7.3298 16.53892,-50.3225 6.36365,-16.632 26.99693,-71.064 45.85194,-120.96 18.8549,-49.896 36.9006,-97.632 40.1015,-106.08 5.2379,-13.82466 5.8196,-16.07969 5.8186,-22.56 -7e-4,-5.61766 -0.4859,-8.1494 -2.2078,-11.52 -2.9855,-5.84439 -7.2816,-10.22156 -13.0398,-13.28572 l -4.8,-2.55428 -78.71996,-0.50613 c -76.74774,-0.49346 -78.90264,-0.55766 -86.00965,-2.56228 -16.30582,-4.59925 -29.08324,-12.27585 -40.87271,-24.55601 -12.08691,-12.59001 -19.44854,-26.66455 -22.92257,-43.82511 -2.1809,-10.77291 -1.50516,-29.13603 1.44861,-39.36589 8.69747,-30.12218 29.98077,-51.76741 60.23159,-61.25582 l 8.44473,-2.64876 108.96001,-0.28934 c 76.34225,-0.20273 111.20055,0.0305 116.44465,0.77906 53.7373,7.67074 96.8381,48.55868 108.269,102.71055 2.7398,12.97933 3.0124,34.63815 0.598,47.51973 -2.2957,12.24777 -5.8995,23.28782 -8.4029,25.74088 -2.6789,2.6251 -95.008,230.16542 -93.9552,231.54782 0.6459,0.8483 -4.9132,15.07 -30.0169,76.7913 -13.9441,34.2838 -19.0961,46.0439 -21.1488,48.2751 -3.0493,3.3145 -9.1544,5.9315 -13.7079,5.8758 -2.112,-0.026 -20.904,-4.53 -41.76,-10.0094 z M 1330.6358,808.72 c 0.046,-1.11835 0.2736,-1.34582 0.58,-0.58 0.2774,0.693 0.2433,1.521 -0.076,1.84 -0.319,0.319 -0.546,-0.248 -0.5043,-1.26 z m -44.3582,-84.64 c -1.1941,-1.52262 -1.1602,-1.55657 0.3625,-0.36246 0.924,0.72466 1.68,1.48066 1.68,1.68 0,0.79012 -0.7884,0.28158 -2.0425,-1.31754 z"
         id="path32" />
      <path
         style="fill:#6e553b;stroke-width:0.96"
         d="m 1739.5201,1601.76 c 1.7911,-1.848 3.4726,-3.36 3.7366,-3.36 0.264,0 -0.9855,1.512 -2.7766,3.36 -1.7912,1.848 -3.4726,3.36 -3.7366,3.36 -0.264,0 0.9854,-1.512 2.7766,-3.36 z m 3.7175,-152.88 c -1.1941,-1.5227 -1.1602,-1.5565 0.3625,-0.3625 1.5991,1.2541 2.1077,2.0425 1.3175,2.0425 -0.1993,0 -0.9553,-0.756 -1.68,-1.68 z M 888.72004,1412.4 c 142.69196,-0.1339 376.18806,-0.1339 518.88006,0 142.692,0.1339 25.944,0.2436 -259.44,0.2436 -285.38406,0 -402.13207,-0.1097 -259.44006,-0.2436 z m -191.52001,-20.1599 c 54.252,-0.137 143.02801,-0.137 197.28001,0 54.252,0.1369 9.864,0.249 -98.64,0.249 -108.50401,0 -152.89201,-0.1121 -98.64001,-0.249 z m 352.31997,9e-4 c 12.012,-0.1524 31.668,-0.1524 43.6801,0 12.012,0.1522 2.184,0.2769 -21.8401,0.2769 -24.024,0 -33.852,-0.1247 -21.84,-0.2769 z m 189.1201,-9e-4 c 48.444,-0.1376 127.716,-0.1376 176.16,0 48.444,0.1376 8.808,0.2501 -88.08,0.2501 -96.888,0 -136.524,-0.1125 -88.08,-0.2501 z M 979.44004,585.89824 c 0.924,-0.24146 2.43601,-0.24146 3.36001,0 0.924,0.24147 0.168,0.43904 -1.68001,0.43904 -1.848,0 -2.604,-0.19757 -1.68,-0.43904 z m -12.94876,-0.97721 c 1.19414,-0.22962 2.92214,-0.22091 3.84,0.0194 0.91776,0.24028 -0.0595,0.42816 -2.17124,0.41751 -2.112,-0.0107 -2.863,-0.20726 -1.66876,-0.43688 z m -12.48004,-0.96 c 1.19415,-0.22962 2.92215,-0.22091 3.84,0.0194 0.91784,0.24028 -0.0592,0.42816 -2.1712,0.41751 -2.112,-0.0107 -2.86296,-0.20726 -1.6688,-0.43688 z m 35.02881,0.0172 c 0.924,-0.24145 2.436,-0.24145 3.36,0 0.924,0.24147 0.168,0.43904 -1.68,0.43904 -1.848,0 -2.604,-0.19757 -1.68,-0.43904 z m -48.00001,-0.96 c 0.924,-0.24145 2.436,-0.24145 3.36,0 0.924,0.24147 0.168,0.43904 -1.68,0.43904 -1.848,0 -2.604,-0.19757 -1.68,-0.43904 z m 35.05124,-0.0172 c 1.19414,-0.22962 2.92214,-0.22091 3.84,0.0194 0.91776,0.24028 -0.0595,0.42816 -2.17124,0.41751 -2.112,-0.0107 -2.863,-0.20726 -1.66876,-0.43688 z m -48.00004,-0.96 c 1.19415,-0.22962 2.92215,-0.22091 3.84,0.0194 0.91784,0.24028 -0.0592,0.42816 -2.1712,0.41751 -2.112,-0.0107 -2.86296,-0.20726 -1.6688,-0.43688 z m 35.52004,0 c 1.19414,-0.22962 2.92214,-0.22091 3.84,0.0194 0.91776,0.24028 -0.0595,0.42816 -2.17124,0.41751 -2.112,-0.0107 -2.863,-0.20726 -1.66876,-0.43688 z m -48.00004,-0.96 c 1.19415,-0.22962 2.92215,-0.22091 3.84,0.0194 0.91784,0.24028 -0.0592,0.42816 -2.1712,0.41751 -2.112,-0.0107 -2.86296,-0.20726 -1.6688,-0.43688 z m 35.0288,0.0172 c 0.924,-0.24145 2.436,-0.24145 3.36,0 0.924,0.24147 0.168,0.43904 -1.68,0.43904 -1.848,0 -2.604,-0.19757 -1.68,-0.43904 z M 902.17123,580.121 c 1.19416,-0.22962 2.92216,-0.2209 3.84001,0.0194 0.91784,0.24028 -0.0592,0.42816 -2.1712,0.41751 -2.112,-0.0107 -2.86296,-0.20726 -1.66881,-0.43688 z m 35.52001,0 c 1.19415,-0.22962 2.92215,-0.2209 3.84,0.0194 0.91784,0.24028 -0.0592,0.42816 -2.1712,0.41751 -2.112,-0.0107 -2.86296,-0.20726 -1.6688,-0.43688 z m -48.00001,-0.96 c 1.19416,-0.22962 2.92216,-0.2209 3.84,0.0194 0.91785,0.24028 -0.0592,0.42816 -2.17119,0.41751 -2.112,-0.0107 -2.86296,-0.20726 -1.66881,-0.43688 z m 35.52001,0 c 1.19415,-0.22962 2.92215,-0.2209 3.84,0.0194 0.91784,0.24028 -0.0592,0.42816 -2.1712,0.41751 -2.112,-0.0107 -2.86296,-0.20726 -1.6688,-0.43688 z m -48.4912,-0.94276 c 0.924,-0.24146 2.436,-0.24146 3.36,0 0.924,0.24147 0.168,0.43904 -1.68,0.43904 -1.848,0 -2.604,-0.19757 -1.68,-0.43904 z m 35.52,0 c 0.924,-0.24146 2.436,-0.24146 3.36,0 0.924,0.24147 0.168,0.43904 -1.68,0.43904 -1.848,0 -2.604,-0.19757 -1.68,-0.43904 z m -48.46881,-0.97721 c 1.19416,-0.22962 2.92216,-0.22091 3.84,0.0194 0.91785,0.24028 -0.0592,0.42816 -2.17119,0.41751 -2.112,-0.0107 -2.86296,-0.20726 -1.66881,-0.43688 z m 35.52,0 c 1.19416,-0.22962 2.92216,-0.22091 3.84001,0.0194 0.91784,0.24028 -0.0592,0.42816 -2.1712,0.41751 -2.112,-0.0107 -2.86296,-0.20726 -1.66881,-0.43688 z m -48,-0.96 c 1.19416,-0.22962 2.92216,-0.22091 3.84,0.0194 0.91785,0.24028 -0.0592,0.42816 -2.17119,0.41751 -2.112,-0.0107 -2.86296,-0.20726 -1.66881,-0.43688 z m 35.52,0 c 1.19416,-0.22962 2.92216,-0.22091 3.84,0.0194 0.91785,0.24028 -0.0592,0.42816 -2.17119,0.41751 -2.112,-0.0107 -2.86296,-0.20726 -1.66881,-0.43688 z m -48.49119,-0.94279 c 0.924,-0.24146 2.436,-0.24146 3.36,0 0.924,0.24147 0.168,0.43904 -1.68,0.43904 -1.848,0 -2.604,-0.19757 -1.68,-0.43904 z m 35.05119,-0.0172 c 1.19416,-0.22962 2.92216,-0.22091 3.84,0.0194 0.91785,0.24028 -0.0592,0.42816 -2.17119,0.41751 -2.112,-0.0107 -2.86296,-0.20726 -1.66881,-0.43688 z m -48,-0.96 c 1.19416,-0.22962 2.92216,-0.22091 3.84,0.0194 0.91785,0.24028 -0.0592,0.42816 -2.17119,0.41751 -2.112,-0.0107 -2.86296,-0.20726 -1.66881,-0.43688 z m 35.52,0 c 1.19416,-0.22962 2.92216,-0.22091 3.84,0.0194 0.91785,0.24028 -0.0592,0.42816 -2.17119,0.41751 -2.112,-0.0107 -2.86296,-0.20726 -1.66881,-0.43688 z m -48,-0.96 c 1.19415,-0.22962 2.92215,-0.22091 3.84,0.0194 0.91785,0.24028 -0.0592,0.42816 -2.17119,0.41751 -2.112,-0.0107 -2.86296,-0.20726 -1.66881,-0.43688 z m 35.02881,0.0172 c 0.924,-0.24146 2.436,-0.24146 3.36,0 0.924,0.24147 0.168,0.43904 -1.68,0.43904 -1.848,0 -2.604,-0.19757 -1.68,-0.43904 z M 1005.1958,572.56 c 0.046,-1.11835 0.2736,-1.34582 0.58,-0.58 0.2774,0.693 0.2433,1.521 -0.076,1.84 -0.319,0.319 -0.546,-0.248 -0.5043,-1.26 z m -195.90107,-0.64 c -0.0106,-1.22292 0.70359,-1.6497 2.62531,-1.56864 2.02348,0.0853 2.19162,0.22338 0.72,0.59105 -1.056,0.26384 -2.23739,0.96973 -2.62531,1.56864 -0.4476,0.69109 -0.71066,0.47514 -0.72,-0.59105 z m 25.6765,0.52103 c 1.19416,-0.22962 2.92216,-0.22091 3.84,0.0194 0.91785,0.24028 -0.0592,0.42816 -2.17119,0.41751 -2.112,-0.0107 -2.86296,-0.20726 -1.66881,-0.43688 z M 1008.1872,570.72 c 0.019,-1.584 0.2347,-2.11578 0.4781,-1.18173 0.2434,0.93405 0.2275,2.23005 -0.035,2.88 -0.2629,0.64995 -0.462,-0.11427 -0.4426,-1.69827 z m -185.69597,0.76103 c 1.19415,-0.22962 2.92216,-0.22091 3.84,0.0194 0.91785,0.24028 -0.0592,0.42816 -2.17119,0.41751 -2.112,-0.0107 -2.86296,-0.20726 -1.66881,-0.43688 z M 1006.8132,564.48 c -0.3888,-1.32 -0.6997,-4.128 -0.6908,-6.24 0.013,-3.08329 0.2097,-3.50733 0.9992,-2.15184 0.5406,0.92848 0.8515,3.73648 0.6907,6.24 -0.2393,3.72689 -0.4204,4.11687 -0.9991,2.15184 z m 0.96,-17.28 c -0.3888,-1.32 -0.6997,-4.128 -0.6908,-6.24 0.013,-3.08329 0.2097,-3.50733 0.9992,-2.15184 0.5406,0.92848 0.8515,3.73648 0.6907,6.24 -0.2393,3.72689 -0.4204,4.11687 -0.9991,2.15184 z m 0.65,-18.60481 c -0.3263,-1.29983 -0.3891,-3.15349 -0.1396,-4.11926 0.264,-1.02159 0.5003,-0.48457 0.5651,1.28407 0.061,1.672 0.63,3.21291 1.264,3.42424 0.8746,0.2915 0.8814,0.55198 0.028,1.07926 -0.7056,0.4361 -1.3457,-0.18544 -1.7178,-1.66831 z m -49.93173,-40.84471 c 0,-1.01723 0.33943,-1.63973 0.75429,-1.38334 0.41486,0.25639 0.75428,1.08868 0.75428,1.84952 0,0.76084 -0.33942,1.38334 -0.75428,1.38334 -0.41486,0 -0.75429,-0.83228 -0.75429,-1.84952 z m -79.62761,-79.0303 c 0.0141,-34.55297 0.19971,-39.60018 1.45618,-39.60018 1.25647,0 1.44206,5.04721 1.45618,39.60018 l 0.0161,39.60018 -0.26682,-39.36018 C 881.35729,384.13736 880.91204,369.6 880.32004,369.6 c -0.592,0 -1.03725,14.53736 -1.20552,39.36018 l -0.26682,39.36018 0.0161,-39.60018 z M 1030.56,279.59444 c -15.312,-1.32615 -28.0407,-2.59016 -28.2861,-2.80892 -0.2453,-0.21876 -0.6204,-5.99212 -0.8334,-12.8297 l -0.3874,-12.43196 3.4319,-3.79867 c 1.8876,-2.08927 4.3647,-5.62725 5.5049,-7.86219 2.2295,-4.37013 7.1259,-22.63119 8.1616,-30.4383 l 0.6335,-4.77539 -5.6325,-2.7072 c -3.4003,-1.6343 -8.2399,-5.28224 -12.2117,-9.20466 -3.61864,-3.5736 -6.72904,-6.49745 -6.91192,-6.49745 -0.18288,0 -2.25274,1.29587 -4.59946,2.8797 -10.19837,6.88276 -25.48723,11.40646 -37.75816,11.17195 l -6.88879,-0.13165 0.48084,2.88 c 1.33652,8.00498 7.47305,31.12662 9.44372,35.58264 1.23551,2.79372 4.11495,7.10664 6.39874,9.58428 l 4.15239,4.50479 0.0106,9.88351 c 0.01,5.43593 -0.29165,10.18643 -0.66154,10.55666 -0.61094,0.6115 -60.73939,-3.86949 -65.79585,-4.90334 -4.3886,-0.89731 -8.529,-15.19293 -6.61221,-22.83007 l 0.60907,-2.42674 4.22874,1.87058 c 6.4399,2.84867 12.31802,3.3553 17.21796,1.484 5.13471,-1.96096 7.57647,-4.47742 10.36134,-10.67827 1.99675,-4.44601 2.19892,-6.70816 2.83009,-31.66804 0.70681,-27.95076 1.73072,-36.44911 5.60975,-46.56 2.34284,-6.10674 3.44123,-7.69115 6.88529,-9.93193 9.25076,-6.01873 56.12176,-6.0739 79.868,-0.094 9.079,2.2863 12.224,4.65362 14.8112,11.14894 4.3639,10.95591 5.3786,21.19096 4.4569,44.95699 -1.1414,29.42654 -0.9865,39.22092 0.6752,42.7209 3.3447,7.04457 18.7745,10.13489 27.5565,5.51909 2.2603,-1.18799 4.3743,-2.15999 4.6979,-2.15999 0.3235,0 0.312,2.97288 -0.026,6.60639 -1.2226,13.15448 -6.9733,26.1636 -11.4564,25.91642 -1.1689,-0.0644 -14.6533,-1.20222 -29.9653,-2.52837 z"
         id="path30" />
      <path
         style="fill:#18588d;stroke-width:0.96"
         d="m 629.61691,1634.6391 c 0.39648,-0.3964 234.1949,-0.6124 519.55199,-0.48 l 518.8312,0.2409 -519.552,0.48 c -285.75367,0.264 -519.22768,0.1556 -518.83119,-0.2409 z m 924.78939,-242.3989 c 28.8675,-0.1411 76.3875,-0.1411 105.6,-10e-5 29.2126,0.1411 5.5938,0.2565 -52.4862,0.2566 -58.08,0 -81.9812,-0.1154 -53.1138,-0.2565 z m -433.6062,-170.0096 c -45.1197,-11.9134 -45.7982,-12.1176 -47.874,-14.4113 -1.4329,-1.5833 -1.2601,-2.4064 2.361,-11.2439 4.1193,-10.0533 24.5467,-60.381 33.0944,-81.5354 3.9984,-9.8955 4.8124,-12.7782 3.9306,-13.92 -0.9712,-1.2576 -0.8962,-1.2707 0.5912,-0.1032 0.9368,0.7353 1.8698,1.1673 2.0734,0.96 0.2037,-0.2073 21.3689,-52.1866 47.0338,-115.5096 31.2086,-77.00067 46.3061,-115.35378 45.5841,-115.8 -0.7723,-0.47733 -0.7819,-0.85113 -0.034,-1.31352 1.4191,-0.877 5.5914,-14.81825 7.5411,-25.19723 2.3859,-12.70084 2.0974,-34.44415 -0.6282,-47.35618 -11.1234,-52.69531 -51.9465,-92.69154 -104.2337,-102.12272 -7.1225,-1.28471 -3.7171,-1.39151 46.9169,-1.4714 45.0405,-0.071 56.377,0.1782 64.7678,1.4241 26.257,3.8988 51.0277,16.17682 69.9842,34.68891 11.3716,11.10499 19.3203,22.08913 26.2268,36.24204 10.0402,20.57453 13.9319,38.91426 13.0461,61.4788 -0.7683,19.57302 -3.5249,30.5594 -14.0909,56.16 -6.4467,15.61957 -70.1761,172.6576 -92.1379,227.04 -33.627,83.2687 -45.0482,111.0287 -46.9384,114.087 -1.0558,1.7084 -3.6234,4.0637 -5.7058,5.2341 -7.359,4.136 -8.9265,3.9129 -51.5088,-7.3305 z"
         id="path28" />
      <path
         style="fill:#c9051d;stroke-width:0.96"
         d="m 482.60542,1128.5272 c 6.42627,-2.0083 12.11523,-5.7985 17.42682,-11.6101 2.71028,-2.9655 4.92778,-5.789 4.92778,-6.2745 0,-0.5344 93.76416,-0.8826 237.70272,-0.8826 189.7477,0 237.6174,0.2421 237.27986,1.2 -0.23251,0.66 -1.88688,5.196 -3.67622,10.08 l -3.25334,8.88 -247.22651,-0.064 c -205.96358,-0.054 -246.55132,-0.2753 -243.18111,-1.3286 z m 738.95038,-8.429 4.065,-9.8582 164.5496,-0.5122 c 179.0232,-0.5572 167.006,-0.1789 183.2697,-5.7704 31.4652,-10.8179 58.2659,-37.7982 68.6177,-69.0774 4.3826,-13.2427 5.5607,-20.7462 5.5769,-35.52 0.012,-10.40275 -0.4772,-16.22438 -1.9341,-23.04 -9.7346,-45.54206 -46.3547,-79.98943 -92.4165,-86.93324 -7.5272,-1.13471 -29.076,-1.37643 -123.124,-1.3811 -62.7,-0.003 -113.9972,-0.32966 -113.9937,-0.72566 0,-0.396 1.7027,-4.824 3.7762,-9.84 l 3.7697,-9.12 h 137.1038 c 128.1316,0 137.638,0.1126 145.264,1.72057 26.2629,5.53765 48.2248,16.81177 66.351,34.06122 53.7599,51.1595 54.5886,136.33681 1.8314,188.23921 -17.5174,17.2335 -37.9889,28.3634 -64.3424,34.9814 l -8.16,2.0492 -192.1346,0.2925 -192.1347,0.2925 z M 504.96002,887.23164 c 0,-0.42261 -2.12363,-3.15104 -4.71918,-6.06318 -4.93031,-5.5317 -13.34551,-10.72497 -19.87385,-12.26476 -2.27884,-0.53749 105.19259,-0.82167 276.59304,-0.73138 L 1037.28,868.32 l 5.2859,2.47969 c 6.093,2.85834 10.7802,7.19827 13.4712,12.47299 1.0357,2.02996 1.8829,3.92404 1.8829,4.20907 0,0.28504 -124.41596,0.51825 -276.47996,0.51825 -152.06401,0 -276.48002,-0.34576 -276.48002,-0.76836 z"
         id="path26" />
      <path
         style="fill:#08623e;stroke-width:0.96"
         d="m 609.85904,1651.7602 c 6.76331,-2.7856 10.8839,-5.8512 16.2684,-12.1037 l 4.11259,-4.7755 516.96007,-0.01 c 344.675,-0.01 519.8394,-0.3344 525.6,-0.9865 49.9006,-5.6492 89.4816,-42.6407 98.0614,-91.6461 2.234,-12.7601 1.3532,-34.309 -1.9142,-46.8263 -4.8615,-18.6253 -15.2005,-36.4189 -29.4135,-50.6215 -15.3654,-15.3541 -33.7139,-25.2085 -56.6812,-30.4416 -6.6919,-1.5248 -42.213,-1.669 -530.157,-2.1524 l -522.98456,-0.5182 -3.31,-4.183 c -4.35523,-5.5036 -10.71943,-10.3839 -16.47179,-12.6311 -4.58475,-1.7909 -1.95998,-1.8163 189.27079,-1.8297 189.29761,-0.014 194.04586,0.031 199.20001,1.8438 7.01515,2.4676 16.65355,2.4747 23.94745,0.017 5.2934,-1.7832 8.4051,-1.9057 49.6853,-1.9564 38.6063,-0.047 44.5001,0.1388 47.7815,1.5098 6.4209,2.6829 16.5365,2.9154 24.296,0.5586 l 6.7478,-2.0496 h 284.491 c 314.8461,0 292.5694,-0.4393 312.4847,6.2224 47.2812,15.8158 80.7058,55.4268 88.3093,104.6537 2.119,13.7188 1.2669,35.8933 -1.8997,49.44 -5.86,25.0683 -18.3241,46.7088 -37.3945,64.9251 -17.5455,16.7596 -37.734,27.5182 -63.0888,33.6205 -6.8925,1.6587 -31.1667,1.7431 -568.32,1.9743 l -561.12007,0.2415 5.53901,-2.2812 z m 503.30706,-550.5657 c -0.4018,-0.6501 91.8253,-230.00942 92.9441,-231.1423 0.102,-0.10329 0.7203,0.1427 1.3738,0.54665 0.8673,0.536 -11.4464,31.90804 -45.5732,116.10777 -25.7189,63.45538 -47.0846,115.37338 -47.4795,115.37338 -0.3948,0 -0.9642,-0.3985 -1.2652,-0.8855 z M 897.66636,579.70634 c -47.74753,-3.63754 -87.02354,-6.82355 -87.28001,-7.08002 -0.25647,-0.25647 -0.19568,-0.73696 0.13511,-1.06774 0.33078,-0.33078 41.4056,2.45266 91.27737,6.18543 66.74281,4.99553 91.56381,6.54172 94.03965,5.85811 3.65117,-1.00814 8.96402,-6.34567 9.73452,-9.77973 0.2644,-1.17831 0.6044,-4.08639 0.7557,-6.46239 l 0.2749,-4.32 0.8055,5.49273 c 0.7296,4.97596 0.5708,5.89303 -1.6883,9.74779 -3.23,5.51156 -8.75826,8.3266 -16.02383,8.1595 -2.86934,-0.066 -44.28308,-3.09614 -92.03061,-6.73368 z M 1127.5928,562.3824 c -13.1599,-5.71829 -24.1399,-10.60963 -24.4,-10.86965 -0.26,-0.26001 -0.1853,-0.76021 0.1661,-1.11155 0.5239,-0.524 44.0887,17.61854 47.7706,19.8941 0.6075,0.37545 0.9439,1.08794 0.7476,1.58332 -0.1964,0.49537 -11.1243,-3.77792 -24.2843,-9.49622 z M 1007.3376,551.52 c 0.01,-3.168 0.1846,-4.34826 0.3982,-2.62281 0.2137,1.72546 0.2092,4.31746 -0.01,5.76 -0.219,1.44255 -0.3938,0.0308 -0.3885,-3.13719 z m 0.844,-15.46601 c -0.2455,-5.33663 0.8475,-12.85399 1.8689,-12.85399 0.4563,0 0.8295,1.296 0.8295,2.88 0,1.584 -0.4104,2.88 -0.912,2.88 -0.5016,0 -1.068,2.484 -1.2585,5.52 -0.2652,4.22532 -0.389,4.59448 -0.5279,1.57399 z m -86.02688,-61.84842 c -19.49493,-7.90198 -36.28091,-15.12286 -37.30215,-16.0464 -1.02126,-0.92354 -2.67486,-3.28196 -3.67468,-5.24092 -1.69747,-3.32589 -1.81785,-6.20271 -1.81785,-43.44 0,-25.9455 0.33541,-39.87825 0.96,-39.87825 0.62427,0 0.96,13.65897 0.96,39.05691 0,37.63518 0.073,39.20752 2.00314,43.19483 1.10172,2.27587 3.15807,4.82016 4.56964,5.65401 1.41159,0.83384 17.87955,7.69231 36.59549,15.24104 18.71594,7.54873 34.19161,14.21282 34.39036,14.80909 0.19875,0.59627 9.6e-4,1.069 -0.43863,1.05052 -0.44,-0.0184 -16.7504,-6.49884 -36.24532,-14.40083 z"
         id="path24" />
      <path
         style="fill:#a5b2c0;stroke-width:0.96"
         d="m 481.83843,1652.0652 c 1.848,-0.3352 254.352,-0.3929 561.12007,-0.128 l 557.76,0.4817 -561.12,0.1279 c -308.61607,0.07 -559.60807,-0.1463 -557.76007,-0.4816 z m 1123.92007,-0.7654 c 0.66,-0.2663 1.74,-0.2663 2.4,0 0.66,0.2663 0.12,0.4842 -1.2,0.4842 -1.32,0 -1.86,-0.2179 -1.2,-0.4842 z m 6.78,-0.98 c 0.693,-0.2773 1.521,-0.2432 1.84,0.076 0.319,0.319 -0.2481,0.5459 -1.26,0.5043 -1.1184,-0.046 -1.3458,-0.2736 -0.58,-0.5801 z m -57.66,-19.1801 c 0.66,-0.2662 1.74,-0.2662 2.4,0 0.66,0.2664 0.12,0.4843 -1.2,0.4843 -1.32,0 -1.86,-0.2179 -1.2,-0.4843 z m 7.74,-0.98 c 0.693,-0.2772 1.521,-0.2431 1.84,0.076 0.319,0.319 -0.2481,0.546 -1.26,0.5043 -1.1184,-0.046 -1.3458,-0.2735 -0.58,-0.58 z m 113.46,-10.2666 c 0,-0.1993 0.756,-0.9553 1.68,-1.6801 1.5226,-1.194 1.5565,-1.1601 0.3625,0.3626 -1.2542,1.5991 -2.0425,2.1077 -2.0425,1.3175 z m 9.6,-9.6 c 0,-0.1993 0.756,-0.9553 1.68,-1.68 1.5226,-1.194 1.5565,-1.1602 0.3625,0.3625 -1.2542,1.5991 -2.0425,2.1077 -2.0425,1.3175 z m -72,-2.88 c 0,-0.1993 0.756,-0.9553 1.68,-1.6801 1.5226,-1.194 1.5565,-1.1601 0.3625,0.3626 -1.2542,1.5991 -2.0425,2.1077 -2.0425,1.3175 z m 14.4,-14.4 c 0,-0.1994 0.756,-0.9553 1.68,-1.6801 1.5226,-1.194 1.5565,-1.1601 0.3625,0.3626 -1.2542,1.599 -2.0425,2.1077 -2.0425,1.3175 z m 91.2757,-54.9175 c 0.046,-1.1185 0.2736,-1.3458 0.5801,-0.58 0.2773,0.6929 0.2432,1.5209 -0.076,1.8399 -0.319,0.319 -0.5459,-0.248 -0.5043,-1.2599 z m -65.2041,-7.12 c 0,-1.32 0.2179,-1.86 0.4842,-1.2001 0.2663,0.6601 0.2663,1.7401 0,2.4001 -0.2663,0.66 -0.4842,0.1199 -0.4842,-1.2 z m 66.4515,-9.6 c 0,-6.072 0.1558,-8.556 0.3463,-5.52 0.1905,3.036 0.1905,8.004 0,11.04 -0.1905,3.036 -0.3463,0.5519 -0.3463,-5.52 z m -66.4515,-9.6 c 0,-1.32 0.2179,-1.86 0.4842,-1.2 0.2663,0.66 0.2663,1.74 0,2.4 -0.2663,0.66 -0.4842,0.12 -0.4842,-1.2 z m 65.28,-7.68 c 0,-1.32 0.2179,-1.86 0.4842,-1.2 0.2663,0.66 0.2663,1.74 0,2.4 -0.2663,0.66 -0.4842,0.12 -0.4842,-1.2 z m -1.0359,-6.32 c 0.046,-1.1184 0.2736,-1.3458 0.5801,-0.58 0.2773,0.693 0.2432,1.521 -0.076,1.84 -0.319,0.319 -0.5459,-0.248 -0.5043,-1.26 z m -96.6161,-55.36 -2.8196,-3.12 3.12,2.8196 c 1.716,1.5508 3.12,2.9548 3.12,3.12 0,0.7417 -0.7921,0.088 -3.4204,-2.8196 z m -8.2221,-7.2 c -1.1941,-1.5227 -1.1602,-1.5565 0.3625,-0.3625 0.924,0.7247 1.68,1.4807 1.68,1.68 0,0.7902 -0.7884,0.2816 -2.0425,-1.3175 z m -722.98037,-41.2557 c 1.7255,-0.2137 4.3175,-0.2093 5.76,0.01 1.4426,0.219 0.031,0.3938 -3.1372,0.3884 -3.168,-0.01 -4.3482,-0.1846 -2.6228,-0.3982 z m 117.46927,-0.2848 c -13.05537,-2.7337 -21.51507,-10.9232 -32.20777,-31.1795 -4.1808,-7.92 -8.9891,-16.992 -10.685,-20.16 -20.0689,-37.4874 -27.3616,-51.7719 -28.6551,-56.1274 -1.9573,-6.5911 -1.8764,-15.426 0.2001,-21.8433 2.052,-6.3415 29.1312,-54.095 30.4213,-53.6472 0.528,0.1832 16.4041,4.3758 35.28007,9.3167 21.6776,5.6744 34.32,9.4191 34.32,10.1658 0,0.6502 -1.0923,4.5468 -2.4274,8.6588 -3.0433,9.3738 -3.9711,18.8062 -2.4456,24.8645 0.6341,2.5182 7.4091,20.9356 15.0556,40.9277 7.6465,19.9921 14.3774,38.7131 14.9577,41.6024 1.3575,6.7594 -0.1017,16.0817 -3.5993,22.9945 -4.8134,9.5136 -16.009,18.0073 -30.4524,23.1033 -4.9718,1.754 -14.6201,2.4003 -19.7622,1.3237 z m 605.4536,-1.5953 c 0.693,-0.2773 1.521,-0.2432 1.84,0.076 0.319,0.319 -0.2481,0.5459 -1.26,0.5043 -1.1184,-0.046 -1.3458,-0.2736 -0.58,-0.5801 z m -5.76,-0.96 c 0.693,-0.2773 1.521,-0.2432 1.84,0.076 0.319,0.319 -0.2481,0.5459 -1.26,0.5043 -1.1184,-0.046 -1.3458,-0.2736 -0.58,-0.5801 z m -10.14,-0.9659 c 0.924,-0.2416 2.436,-0.2416 3.36,0 0.924,0.2414 0.168,0.439 -1.68,0.439 -1.848,0 -2.604,-0.1976 -1.68,-0.439 z M 942.63843,1226.2931 c 0,-0.1993 0.756,-0.9553 1.68,-1.68 1.5227,-1.194 1.5566,-1.1602 0.3625,0.3625 -1.2541,1.5991 -2.0425,2.1077 -2.0425,1.3175 z m 12.9504,-19.8131 c -0.3316,-0.5368 -1.0052,-0.7272 -1.4967,-0.4234 -0.4915,0.3037 -0.8937,0.095 -0.8937,-0.4644 0,-1.4681 1.4923,-1.2488 2.88,0.4234 0.6574,0.792 0.9517,1.44 0.6543,1.44 -0.2975,0 -0.8123,-0.4391 -1.1439,-0.9756 z m -117.2016,-2.1444 -1.8288,-2.16 2.16,1.8288 c 2.0299,1.7185 2.5971,2.4912 1.8288,2.4912 -0.1821,0 -1.1541,-0.972 -2.16,-2.16 z m -5.113,-9.92 c 0.046,-1.1185 0.2736,-1.3458 0.58,-0.58 0.2773,0.693 0.2433,1.521 -0.076,1.84 -0.319,0.319 -0.5459,-0.2481 -0.5042,-1.26 z m 108.6788,-300.4001 c 0.01,-2.64 0.1936,-3.606 0.4143,-2.1468 0.2207,1.4593 0.2148,3.6193 -0.013,4.8 -0.2278,1.1808 -0.4084,-0.013 -0.4012,-2.6532 z m -225.4306,-54.48 -4.764,-5.04 5.04,4.764 c 4.6833,4.4267 5.4803,5.316 4.764,5.316 -0.1519,0 -2.4199,-2.268 -5.04,-5.04 z m 495.95177,2.56 c 0.046,-1.1183 0.2736,-1.3458 0.58,-0.58 0.2774,0.693 0.2433,1.521 -0.076,1.84 -0.319,0.319 -0.546,-0.248 -0.5043,-1.26 z m 0.96,-6.72 c 0.046,-1.1183 0.2736,-1.3458 0.58,-0.58 0.2774,0.693 0.2433,1.521 -0.076,1.84 -0.319,0.319 -0.546,-0.248 -0.5043,-1.26 z m 1.1916,-15.76 c 0,-3.432 0.1742,-4.836 0.3871,-3.12 0.213,1.716 0.213,4.524 0,6.24 -0.2129,1.716 -0.3871,0.312 -0.3871,-3.12 z m -30.1898,-82.32 c -1.1941,-1.5226 -1.1602,-1.5565 0.3625,-0.3624 0.924,0.7246 1.68,1.4806 1.68,1.68 0,0.7901 -0.7884,0.2816 -2.0425,-1.3176 z m -8.0828,-9.12 -3.7947,-4.08 4.08,3.7949 c 3.7944,3.5291 4.5211,4.3651 3.7947,4.3651 -0.1567,0 -1.9927,-1.836 -4.08,-4.08 z M 719.91843,713.6531 c 0,-0.1994 0.756,-0.9554 1.68,-1.68 1.5227,-1.1941 1.5566,-1.1602 0.3625,0.3624 -1.2541,1.5992 -2.0425,2.1077 -2.0425,1.3176 z m 379.92007,-22.3533 c 0.66,-0.2664 1.74,-0.2664 2.4,0 0.66,0.2663 0.12,0.4842 -1.2,0.4842 -1.32,0 -1.86,-0.2179 -1.2,-0.4842 z m -244.72437,-1.0442 c 42.9417,-0.1383 112.9257,-0.1382 155.51997,0 42.5944,0.1383 7.4604,0.2514 -78.07567,0.2514 -85.536,0 -120.3859,-0.1131 -77.4443,-0.2514 z M 1075.1942,495.5355 c 0.046,-1.1183 0.2736,-1.3458 0.58,-0.58 0.2774,0.693 0.2433,1.521 -0.076,1.84 -0.319,0.319 -0.546,-0.248 -0.5043,-1.26 z m 2.88,-30.72 c 0.046,-1.1183 0.2736,-1.3458 0.58,-0.58 0.2774,0.693 0.2433,1.521 -0.076,1.84 -0.319,0.319 -0.546,-0.248 -0.5043,-1.26 z m -157.19297,-234.64 c 0,-3.96 0.1694,-5.58 0.3766,-3.6 0.2071,1.98 0.2071,5.22 0,7.2 -0.2072,1.98 -0.3766,0.36 -0.3766,-3.6 z m -111.5312,-7.68 c 0,-1.32 0.2179,-1.86 0.4842,-1.2 0.2663,0.66 0.2663,1.74 0,2.4 -0.2663,0.66 -0.4842,0.12 -0.4842,-1.2 z m 112.32,-14.4 c 0,-1.32 0.218,-1.86 0.4843,-1.2 0.2663,0.66 0.2663,1.74 0,2.4 -0.2663,0.66 -0.4843,0.12 -0.4843,-1.2 z m -111.4358,-27.44 c 0.046,-1.1183 0.2736,-1.3458 0.58,-0.58 0.2773,0.693 0.2432,1.521 -0.076,1.84 -0.319,0.319 -0.5459,-0.248 -0.5042,-1.26 z m 41.9242,-40.4677 c 2.772,-0.1939 7.308,-0.1939 10.08,0 2.7721,0.1939 0.504,0.3526 -5.04,0.3526 -5.544,0 -7.812,-0.1587 -5.04,-0.3526 z"
         id="path36-1" />
      <path
         style="opacity:0.963934;fill:#f87522;fill-opacity:1;stroke:#000000;stroke-width:0.324;filter:url(#filter1330);stroke-miterlimit:4;stroke-dasharray:none"
         d="m 1104.7385,536.25158 c 3.2206,-8.39264 -7.0299,-12.13809 -34.2133,-12.50136 -17.3471,-0.23183 -28.7416,1.05301 -32.9469,3.71508 -5.5193,3.49382 -10.7169,2.93205 -36.7447,-3.97144 -41.5592,-11.02294 -41.03585,-10.64428 -41.021,-29.67725 0.0113,-14.46518 2.61697,-46.784 5.54379,-74.55182 2.51779,-23.88711 5.27324,-44.40638 6.81921,-47.29508 1.73268,-3.23756 5.5718,-5.88645 8.5313,-5.88645 2.9595,0 29.6356,7.5786 59.2801,16.84134 29.6446,9.26274 56.3306,16.84134 59.3023,16.84134 2.9717,0 24.3815,-5.69486 47.5774,-12.65526 23.1958,-6.96039 44.3343,-11.82639 46.9743,-10.81332 6.1898,2.37525 6.0474,16.33832 -0.8266,81.05975 -3.8318,36.07883 -6.5486,50.72047 -9.7902,52.76294 -6.6735,4.20488 -72.8756,30.50074 -76.7882,30.50074 -1.8558,0 -2.6196,-1.96614 -1.6975,-4.36921 z"
         id="path99"
         sodipodi:nodetypes="ssssssssssssssss" />
      <path
         style="fill:none;stroke:#000000;stroke-width:1px;stroke-linecap:butt;stroke-linejoin:miter;stroke-opacity:1"
         d="m 1115.0553,389.86484 -10.3168,146.38674"
         id="path101" />
      <path
         style="fill:none;stroke:#000000;stroke-width:1px;stroke-linecap:butt;stroke-linejoin:miter;stroke-opacity:1"
         d="M 1050.752,521.53351 Z"
         id="path105" />
      <path
         style="fill:none;stroke:#000000;stroke-width:1px;stroke-linecap:butt;stroke-linejoin:miter;stroke-opacity:1"
         d="m 1050.752,521.53351 12.2483,-137.79279"
         id="path107" />
      <path
         style="fill:#ffb380;fill-opacity:1;stroke:#000000;stroke-width:1.424;stroke-miterlimit:4;stroke-dasharray:none"
         d="m 1089.9378,521.86678 c -6.7365,-1.28012 -17.7936,-2.4069 -24.5714,-2.50395 l -12.3231,-0.17647 5.2415,-57.41366 c 2.8829,-31.57752 5.3279,-59.75077 5.4335,-62.60723 0.1781,-4.81806 1.3362,-4.85375 16.0182,-0.49369 8.7044,2.58493 19.7115,4.12963 24.4603,3.43266 l 8.6341,-1.26722 -1.5047,15.54019 c -0.8276,8.5471 -2.9692,36.18528 -4.7591,61.41817 -1.79,25.23289 -3.508,45.99515 -3.8178,46.13834 -0.3098,0.1432 -6.075,-0.78702 -12.8115,-2.06714 z"
         id="path109" />
    </g>
    <path
       style="fill:#ffccaa;stroke:#000000;stroke-width:2.474;stroke-miterlimit:4;stroke-dasharray:none"
       d="m 976.18357,272.41105 c -6.1632,-1.18708 -9.74342,-5.00439 -9.74342,-10.38865 0,-4.6816 -2.77887,-12.82798 -6.17526,-18.10306 -3.3964,-5.27509 -7.51064,-16.89863 -9.14276,-25.8301 -2.73855,-14.98626 -2.17864,-16.25411 7.25787,-16.43436 5.62395,-0.10742 16.07141,-2.70516 23.21659,-5.77274 11.41112,-4.89906 14.38168,-4.55577 24.42321,2.82251 10.4642,7.6888 11.0693,9.73562 7.1478,24.17698 -2.3563,8.67738 -7.2445,19.10873 -10.8626,23.18078 -4.22397,4.75385 -5.5903,11.34092 -3.81752,18.40424 2.90522,11.57523 0.67368,12.37008 -22.30391,7.9444 z"
       id="path48" />
    <path
       style="fill:#ffccaa;stroke:#000000;stroke-width:0.974;stroke-miterlimit:4;stroke-dasharray:none"
       d="m 1009.7442,548.76491 v -17.80358 h 17.3217 c 9.5269,0 17.3216,-1.66763 17.3216,-3.70585 0,-3.79839 54.1739,-4.312 57.6643,-0.5467 1.0642,1.14804 1.0046,8.1872 -0.1324,15.64258 -2.0432,13.39689 -2.4292,13.58879 -33.0474,16.42917 -17.039,1.58067 -37.3133,3.9796 -45.0539,5.33095 -13.9945,2.44314 -14.0739,2.35657 -14.0739,-15.34657 z"
       id="path50" />
    <path
       style="fill:#e3e4e4;fill-opacity:1;stroke:#000000;stroke-width:2.98696"
       d=""
       id="path95" />
  </g>
</svg>
